<mxfile host="drawio-plugin" modified="2022-02-25T13:59:45.402Z" agent="5.0 (Macintosh; Intel Mac OS X 12_2_1) AppleWebKit/537.36 (KHTML, like Gecko) Chrome/89.0.4389.114 Safari/537.36" etag="I3T-qoiaBp_jA0m83ebw" version="15.5.4" type="embed"><diagram id="F44mslXG7EauhRFhVprv" name="Page-2"><mxGraphModel dx="1015" dy="423" grid="1" gridSize="10" guides="1" tooltips="1" connect="1" arrows="1" fold="1" page="1" pageScale="1" pageWidth="850" pageHeight="1100" math="0" shadow="0"><root><mxCell id="AAQ9BwyIkS6VjVYWZHyZ-0"/><mxCell id="AAQ9BwyIkS6VjVYWZHyZ-1" parent="AAQ9BwyIkS6VjVYWZHyZ-0"/><mxCell id="0" value="Central&lt;br&gt;Data Team" style="ellipse;whiteSpace=wrap;html=1;sketch=1;fontStyle=1;fontFamily=Architects Daughter;fontSource=https%3A%2F%2Ffonts.googleapis.com%2Fcss%3Ffamily%3DArchitects%2BDaughter;fontSize=16;align=left;spacingLeft=140;fillColor=#EBEBEB;strokeColor=#858585;" parent="AAQ9BwyIkS6VjVYWZHyZ-1" vertex="1"><mxGeometry x="320" y="170" width="300" height="210" as="geometry"/></mxCell><mxCell id="14" value="Marketing" style="ellipse;whiteSpace=wrap;html=1;fontSize=14;sketch=1;fontStyle=1;fontFamily=Architects Daughter;fontSource=https%3A%2F%2Ffonts.googleapis.com%2Fcss%3Ffamily%3DArchitects%2BDaughter;spacingLeft=55;align=left;fillColor=#FFEB99;strokeColor=#FFD966;" parent="AAQ9BwyIkS6VjVYWZHyZ-1" vertex="1"><mxGeometry x="650" y="80" width="130" height="90" as="geometry"/></mxCell><mxCell id="15" value="Domain Team" style="ellipse;whiteSpace=wrap;html=1;fontSize=14;sketch=1;fontStyle=1;fontFamily=Architects Daughter;fontSource=https%3A%2F%2Ffonts.googleapis.com%2Fcss%3Ffamily%3DArchitects%2BDaughter;spacingLeft=60;align=left;fillColor=#FFEB99;strokeColor=#FFD966;" parent="AAQ9BwyIkS6VjVYWZHyZ-1" vertex="1"><mxGeometry x="700" y="250" width="130" height="90" as="geometry"/></mxCell><mxCell id="18" value="Domain Team" style="ellipse;whiteSpace=wrap;html=1;fontSize=14;sketch=1;fontStyle=1;fontFamily=Architects Daughter;fontSource=https%3A%2F%2Ffonts.googleapis.com%2Fcss%3Ffamily%3DArchitects%2BDaughter;align=left;spacingLeft=60;fillColor=#FFEB99;strokeColor=#FFD966;" parent="AAQ9BwyIkS6VjVYWZHyZ-1" vertex="1"><mxGeometry x="620" y="430" width="130" height="90" as="geometry"/></mxCell><mxCell id="19" value="Domain Team" style="ellipse;whiteSpace=wrap;html=1;fontSize=14;sketch=1;fontStyle=1;fontFamily=Architects Daughter;fontSource=https%3A%2F%2Ffonts.googleapis.com%2Fcss%3Ffamily%3DArchitects%2BDaughter;spacingLeft=60;align=left;fillColor=#FFEB99;strokeColor=#FFD966;" parent="AAQ9BwyIkS6VjVYWZHyZ-1" vertex="1"><mxGeometry x="371" y="460" width="130" height="90" as="geometry"/></mxCell><mxCell id="20" value="Domain Team" style="ellipse;whiteSpace=wrap;html=1;fontSize=14;sketch=1;fontStyle=1;fontFamily=Architects Daughter;fontSource=https%3A%2F%2Ffonts.googleapis.com%2Fcss%3Ffamily%3DArchitects%2BDaughter;spacingLeft=60;align=left;fillColor=#FFEB99;strokeColor=#FFD966;" parent="AAQ9BwyIkS6VjVYWZHyZ-1" vertex="1"><mxGeometry x="140" y="390" width="130" height="90" as="geometry"/></mxCell><mxCell id="22" value="Domain Team" style="ellipse;whiteSpace=wrap;html=1;fontSize=14;sketch=1;fontStyle=1;fontFamily=Architects Daughter;fontSource=https%3A%2F%2Ffonts.googleapis.com%2Fcss%3Ffamily%3DArchitects%2BDaughter;spacingLeft=60;align=left;fillColor=#FFEB99;strokeColor=#FFD966;" parent="AAQ9BwyIkS6VjVYWZHyZ-1" vertex="1"><mxGeometry x="110" y="170" width="130" height="90" as="geometry"/></mxCell><mxCell id="23" value="CEO" style="ellipse;whiteSpace=wrap;html=1;fontSize=14;sketch=1;fontStyle=1;fontFamily=Architects Daughter;fontSource=https%3A%2F%2Ffonts.googleapis.com%2Fcss%3Ffamily%3DArchitects%2BDaughter;spacingLeft=60;align=left;fillColor=#FFEB99;strokeColor=#FFD966;" parent="AAQ9BwyIkS6VjVYWZHyZ-1" vertex="1"><mxGeometry x="250" y="34.980000000000004" width="130" height="90" as="geometry"/></mxCell><mxCell id="24" value="CFO" style="ellipse;whiteSpace=wrap;html=1;fontSize=14;sketch=1;fontStyle=1;fontFamily=Architects Daughter;fontSource=https%3A%2F%2Ffonts.googleapis.com%2Fcss%3Ffamily%3DArchitects%2BDaughter;spacingLeft=60;align=left;fillColor=#FFEB99;strokeColor=#FFD966;" parent="AAQ9BwyIkS6VjVYWZHyZ-1" vertex="1"><mxGeometry x="470" y="20" width="130" height="90" as="geometry"/></mxCell><mxCell id="28" value="" style="shape=flexArrow;endArrow=classic;startArrow=classic;html=1;rounded=0;fontSize=12;sketch=1;fontStyle=1;fontFamily=Architects Daughter;fontSource=https%3A%2F%2Ffonts.googleapis.com%2Fcss%3Ffamily%3DArchitects%2BDaughter;" parent="AAQ9BwyIkS6VjVYWZHyZ-1" edge="1"><mxGeometry width="100" height="100" relative="1" as="geometry"><mxPoint x="260" y="400" as="sourcePoint"/><mxPoint x="340" y="340" as="targetPoint"/></mxGeometry></mxCell><mxCell id="29" value="" style="shape=flexArrow;endArrow=classic;startArrow=classic;html=1;rounded=0;fontSize=12;sketch=1;fontStyle=1;fontFamily=Architects Daughter;fontSource=https%3A%2F%2Ffonts.googleapis.com%2Fcss%3Ffamily%3DArchitects%2BDaughter;" parent="AAQ9BwyIkS6VjVYWZHyZ-1" edge="1"><mxGeometry width="100" height="100" relative="1" as="geometry"><mxPoint x="448" y="458" as="sourcePoint"/><mxPoint x="458" y="387" as="targetPoint"/></mxGeometry></mxCell><mxCell id="30" value="" style="shape=flexArrow;endArrow=classic;startArrow=classic;html=1;rounded=0;fontSize=12;sketch=1;fontStyle=1;fontFamily=Architects Daughter;fontSource=https%3A%2F%2Ffonts.googleapis.com%2Fcss%3Ffamily%3DArchitects%2BDaughter;" parent="AAQ9BwyIkS6VjVYWZHyZ-1" edge="1"><mxGeometry width="100" height="100" relative="1" as="geometry"><mxPoint x="640" y="430" as="sourcePoint"/><mxPoint x="582" y="361" as="targetPoint"/></mxGeometry></mxCell><mxCell id="33" value="" style="shape=flexArrow;endArrow=classic;startArrow=classic;html=1;rounded=0;fontSize=12;sketch=1;fontStyle=1;fontFamily=Architects Daughter;fontSource=https%3A%2F%2Ffonts.googleapis.com%2Fcss%3Ffamily%3DArchitects%2BDaughter;entryX=1.011;entryY=0.54;entryDx=0;entryDy=0;entryPerimeter=0;" parent="AAQ9BwyIkS6VjVYWZHyZ-1" edge="1"><mxGeometry width="100" height="100" relative="1" as="geometry"><mxPoint x="698" y="295" as="sourcePoint"/><mxPoint x="621.3" y="283.4" as="targetPoint"/></mxGeometry></mxCell><mxCell id="34" value="" style="shape=flexArrow;endArrow=classic;startArrow=classic;html=1;rounded=0;fontSize=12;sketch=1;fontStyle=1;fontFamily=Architects Daughter;fontSource=https%3A%2F%2Ffonts.googleapis.com%2Fcss%3Ffamily%3DArchitects%2BDaughter;" parent="AAQ9BwyIkS6VjVYWZHyZ-1" edge="1"><mxGeometry width="100" height="100" relative="1" as="geometry"><mxPoint x="650" y="147.07" as="sourcePoint"/><mxPoint x="600" y="197.07" as="targetPoint"/></mxGeometry></mxCell><mxCell id="35" value="" style="shape=flexArrow;endArrow=classic;startArrow=classic;html=1;rounded=0;fontSize=12;sketch=1;fontStyle=1;fontFamily=Architects Daughter;fontSource=https%3A%2F%2Ffonts.googleapis.com%2Fcss%3Ffamily%3DArchitects%2BDaughter;exitX=0.377;exitY=1.021;exitDx=0;exitDy=0;exitPerimeter=0;" parent="AAQ9BwyIkS6VjVYWZHyZ-1" source="24" edge="1"><mxGeometry width="100" height="100" relative="1" as="geometry"><mxPoint x="502" y="130" as="sourcePoint"/><mxPoint x="495" y="165" as="targetPoint"/></mxGeometry></mxCell><mxCell id="36" value="" style="shape=flexArrow;endArrow=classic;startArrow=classic;html=1;rounded=0;fontSize=12;sketch=1;fontStyle=1;fontFamily=Architects Daughter;fontSource=https%3A%2F%2Ffonts.googleapis.com%2Fcss%3Ffamily%3DArchitects%2BDaughter;" parent="AAQ9BwyIkS6VjVYWZHyZ-1" edge="1"><mxGeometry width="100" height="100" relative="1" as="geometry"><mxPoint x="360" y="119" as="sourcePoint"/><mxPoint x="400" y="174" as="targetPoint"/></mxGeometry></mxCell><mxCell id="37" value="" style="shape=flexArrow;endArrow=classic;startArrow=classic;html=1;rounded=0;fontSize=12;sketch=1;fontStyle=1;fontFamily=Architects Daughter;fontSource=https%3A%2F%2Ffonts.googleapis.com%2Fcss%3Ffamily%3DArchitects%2BDaughter;exitX=1.014;exitY=0.627;exitDx=0;exitDy=0;exitPerimeter=0;" parent="AAQ9BwyIkS6VjVYWZHyZ-1" source="22" target="0" edge="1"><mxGeometry width="100" height="100" relative="1" as="geometry"><mxPoint x="256" y="167" as="sourcePoint"/><mxPoint x="332" y="218" as="targetPoint"/></mxGeometry></mxCell><mxCell id="40" value="" style="shape=image;verticalLabelPosition=bottom;labelBackgroundColor=#ffffff;verticalAlign=top;aspect=fixed;imageAspect=0;image=data:image/svg+xml,PHN2ZyB4bWxucz0iaHR0cDovL3d3dy53My5vcmcvMjAwMC9zdmciIHZpZXdCb3g9Ii0wLjEyMDEyMjYwNDA3MjA5Mzk2IDIuNTAwMDAxMTkyMDkyODk1NSAyNTAuMzk3OTAzNDQyMzgyOCAyNDQuNjM5ODAxMDI1MzkwNjIiIHdpZHRoPSIyNTAuMzk3OTAzNDQyMzgyOCIgaGVpZ2h0PSIyNDQuNjM5ODAxMDI1MzkwNjIiPiYjeGE7ICAmI3hhOzxnIHRyYW5zZm9ybT0ibWF0cml4KDEwLjQxNjY2NjY2NjY2NjY2NiwwLDAsMTAuNDE2NjY2NjY2NjY2NjY2LDAsMCkiPjxnPiYjeGE7ICAgIDxwYXRoIGQ9Ik0xMy40NywxOC45Yy0uMjctLjA3LS41OC0uNDMtLjg1LS44MmEzLjc1LDMuNzUsMCwwLDEtLjYtMS4xNWMtLjM2LTEuNDEuMTctMy4zNC0uNTEtNS4xMUE1LjIsNS4yLDAsMCwwLDksOS4xMmE0LDQsMCwwLDAtMy4xMy0uMzUsNC43Nyw0Ljc3LDAsMCwwLTIuNSwxLjg1LDcuMjcsNy4yNywwLDAsMC0uNzQsMS40NSw3LjU0LDcuNTQsMCwwLDAtLjQxLDEuNTZjLS4xMywxLjEzLjA4LDIuMzEtLjExLDMuMzVhMi4zNiwyLjM2LDAsMCwxLTEsMS42LDIuMywyLjMsMCwwLDEtLjQuMjNBMS44LDEuOCwwLDAsMSwuMjgsMTlhLjM1LjM1LDAsMCwwLS4yNS4xOS4zMS4zMSwwLDAsMCwwLC4zMSwzLjgsMy44LDAsMCwwLC42NS43NSwxLjUzLDEuNTMsMCwwLDAsLjY3LjM2LjMuMywwLDEsMCwuMS0uNTlBMS4xMiwxLjEyLDAsMCwxLDEsMTkuNjRsLS4xNS0uMTYuMDksMHEuMjUtLjEyLjUxLS4yN2EzLjA5LDMuMDksMCwwLDAsMS40NC0yLDcuNzMsNy43MywwLDAsMCwuMTYtMS41NCw0LjQ3LDQuNDcsMCwwLDAsLjYsMS43M0E0Ljc0LDQuNzQsMCwwLDAsNS4yNywxOWE3LjM1LDcuMzUsMCwwLDAtMy4zNCwyLjEzLDUuNjQsNS42NCwwLDAsMC0uNTkuODQsOC41MSw4LjUxLDAsMCwwLS42MywxLjM2LjMuMywwLDAsMCwuNTUuMjMsOC44MSw4LjgxLDAsMCwxLC41Ni0xLDQuNzQsNC43NCwwLDAsMSwuNy0uODUsNyw3LDAsMCwxLDMuMTctMS42NCw1Ljg0LDUuODQsMCwwLDEsMy40OC4xNEE0LjQ0LDQuNDQsMCwwLDEsMTEsMjEuNWE3LjYyLDcuNjIsMCwwLDEsMS4yNCwyLC4zMy4zMywwLDAsMCwuNDQuMi4zNS4zNSwwLDAsMCwuMi0uNDRBOC40OSw4LjQ5LDAsMCwwLDExLjY2LDIxYTUuMzksNS4zOSwwLDAsMC0yLjExLTEuNzJsLS40OC0uMTVhNC4zNSw0LjM1LDAsMCwwLC43OS0uNTZBNS43NCw1Ljc0LDAsMCwwLDExLDE2LjgzYzAtLjA2LjA1LS4xMi4wOC0uMTlhMy44MiwzLjgyLDAsMCwwLC4xMS41MSw1LjE2LDUuMTYsMCwwLDAsMSwxLjY0LDMuMTksMy4xOSwwLDAsMCwuNzEuNjRsLS4xLjE1YS44Ny44NywwLDAsMS0uMzMuMjcuMzQuMzQsMCwwLDAsLjIzLjY0LDEuMzIsMS4zMiwwLDAsMCwuNTUtLjM2LDIuNiwyLjYsMCwwLDAsLjQ2LS43Mi4zNC4zNCwwLDAsMCwwLS4zMUEuMzUuMzUsMCwwLDAsMTMuNDcsMTguOVptLTMuMi0yLjQ2YTQuODUsNC44NSwwLDAsMS0xLjA5LDEuMywzLDMsMCwwLDEtLjg2LjQ4LDMuNTQsMy41NCwwLDAsMS0xLC4yLDIuNTIsMi41MiwwLDAsMS0uNzItLjA3LDMuNzIsMy43MiwwLDAsMS0uNzMtLjIzLDMuOSwzLjksMCwwLDEtMS41LTEuMjQsMy42NSwzLjY1LDAsMCwxLS43LTEuNjZjLjY0LDAsMS4yOS4wOSwxLjk1LjExLjQzLDAsLjg2LDAsMS4yOSwwcy44NiwwLDEuMjktLjA4Yy44NS0uMDcsMS43LS4xNywyLjU2LS4yN0EzLjg1LDMuODUsMCwwLDEsMTAuMjcsMTYuNDRaTTkuMTQsMTQuMTlhMy4yMSwzLjIxLDAsMCwwLDAtLjU0LDkuMTQsOS4xNCwwLDAsMC0uMi0xLC4zLjMsMCwxLDAtLjYuMDUsOS4yLDkuMiwwLDAsMC0uMDUsMSwzLjcxLDMuNzEsMCwwLDAsLjA2LjQ1SDYuODljLS40MywwLS44NSwwLTEuMjguMDYtLjgzLjA3LTEuNjUuMTYtMi40Ny4yNWE1LjUzLDUuNTMsMCwwLDEsLjA3LS43LDYuNSw2LjUsMCwwLDEsLjQxLTEuMzEsNi40LDYuNCwwLDAsMSwuNjUtMS4yQTMuNjcsMy42NywwLDAsMSw2LjE5LDkuODhhMi45MywyLjkzLDAsMCwxLDIuMjcuMjMsNC4yNyw0LjI3LDAsMCwxLDIuMDgsMi4xLDYuMyw2LjMsMCwwLDEsLjQzLDJaIiBzdHlsZT0iZmlsbDogIzAwMDAwMCIvPiYjeGE7ICAgIDxwYXRoIGQ9Ik0xOC45NCw5YTQuMTYsNC4xNiwwLDAsMCwxLjE5LTMuNzIsMy44NCwzLjg0LDAsMCwwLTEuMzUtMi4xMywzLjI3LDMuMjcsMCwwLDAtMi4zOC0uNzYuMzQuMzQsMCwxLDAsLjA1LjY3LDIuNTcsMi41NywwLDAsMSwxLjgyLjY5LDIuOSwyLjksMCwwLDEsLjk1LDEuNjksMy4xOCwzLjE4LDAsMCwxLTEsMi43NywzLjI5LDMuMjksMCwwLDEtMi43OC45NCwyLjc5LDIuNzksMCwwLDEtMS40Ni0uNzgsMi44NiwyLjg2LDAsMCwxLS44My0xLjQ3LDMuMDksMy4wOSwwLDAsMSwuMTMtMS41QTMuNTQsMy41NCwwLDAsMSwxNCw0LjA4YTMuNzIsMy43MiwwLDAsMSwuODItLjYzLDIuNzcsMi43NywwLDAsMSwxLS4zNC4zLjMsMCwwLDAtLjA1LS41OSwzLjE5LDMuMTksMCwwLDAtMS4yMS4zNCw0LjIsNC4yLDAsMCwwLTIuMTIsMi4yOCwzLjk0LDMuOTQsMCwwLDAtLjI5LDIsMy43MywzLjczLDAsMCwwLDEsMi4wOCwzLjY4LDMuNjgsMCwwLDAsMi4wNiwxLjEzQTQuMzEsNC4zMSwwLDAsMCwxOC45NCw5WiIgc3R5bGU9ImZpbGw6ICMwMDAwMDAiLz4mI3hhOyAgICA8cGF0aCBkPSJNMTYuMTUsNC4zNWEuMy4zLDAsMCwwLS4zMy4yNmMwLC4yMi0uMTcsMS0uMiwxLjVhMS4yNiwxLjI2LDAsMCwwLC4wOS41OS41NC41NCwwLDAsMCwuNDQuMjFjLjMyLDAsMS4wOC0uMDgsMS4yOC0uMWEuMzQuMzQsMCwxLDAsMC0uNjdjLS4xNSwwLS42NiwwLTEsMCwwLS40NSwwLTEuMjMsMC0xLjQ1QS4zLjMsMCwwLDAsMTYuMTUsNC4zNVoiIHN0eWxlPSJmaWxsOiAjMDAwMDAwIi8+JiN4YTsgICAgPHBhdGggZD0iTTI0LDUuNDhjMC0uODUsMC0yLjkyLS4wNS0zLjgxYTEuMjUsMS4yNSwwLDAsMC0uMjktLjc5LDUuNDYsNS40NiwwLDAsMC0yLS40NGMtMS4yMi0uMTMtMi44NC0uMi00LS4yLS40NiwwLTQuMzMsMC02LjYuMTdBNC42OCw0LjY4LDAsMCwwLDkuMjEuOC42Ni42NiwwLDAsMCw5LDEuMTFhNy4zMSw3LjMxLDAsMCwwLS4xNiwxLjNjLS4wOSwxLjc2LDAsNC43MSwwLDUuNGEuMzQuMzQsMCwwLDAsLjM0LjM0LjM0LjM0LDAsMCwwLC4zNC0uMzRjMC0uNTMsMC0yLjM5LjEtNCwwLS44NC4wOS0xLjYyLjE2LTIuMSwwLS4xMS4wNS0uMjIuMDYtLjI5cy4yNCwwLC4zNiwwYy42LS4wOCwxLjU0LS4xMSwyLjU3LS4xMywyLjExLDAsNC41NCwwLDQuODkuMDUsMSwwLDIuMjUuMSwzLjM1LjIxLjcxLjA3LDEuMzMuMTUsMS43Mi4yM2wuMDcsMHYwYy4wOC44NiwwLDIuODcsMCwzLjY5LDAsLjUuMDcsMi4yNS4wOCwzLjc4YTE3LjA1LDE3LjA1LDAsMCwxLS4wOCwxLjk0LDIuNiwyLjYsMCwwLDEsMCwuMjYsNS42Nyw1LjY3LDAsMCwwLS43LDBjLS40NSwwLS45MSwwLTEuMDgsMC0xLDAtMi4xNi0uMTUtMi42OS0uMTJhLjg3Ljg3LDAsMCwwLS41OS4yMmMtLjI0LjI4LS40OS45NC0uOTIsMS42NmE1LDUsMCwwLDEtLjY4LjkxLDIuMTcsMi4xNywwLDAsMS0xLjYyLjcyYy0uMDgtLjU1LDAtMi4wOCwwLTIuNzNhMS4yMSwxLjIxLDAsMCwwLS4wNy0uNDEuMzIuMzIsMCwwLDAtLjI0LS4yLjMuMywwLDAsMC0uMzQuMjVzMCwzLjM2LjA2LDMuNWEuNDQuNDQsMCwwLDAsLjMyLjI1LDIuMiwyLjIsMCwwLDAsMSwwLDMsMywwLDAsMCwxLjQyLS44LDYuMjIsNi4yMiwwLDAsMCwuODItMWMuMzgtLjU4LjYtMS4xMy44MS0xLjQyaC4wNWMuNSwwLDEuNTkuMTMsMi41OC4yMWExMC4xMSwxMC4xMSwwLDAsMCwxLjY2LDAsMS42NCwxLjY0LDAsMCwwLDEtLjM0QTMuMTIsMy4xMiwwLDAsMCwyNCwxMC41NUMyNC4wNiw4Ljg5LDI0LDYuMTIsMjQsNS40OFoiIHN0eWxlPSJmaWxsOiAjMzM5N0ZBIi8+JiN4YTsgIDwvZz48L2c+PC9zdmc+;imageBackground=none;" parent="AAQ9BwyIkS6VjVYWZHyZ-1" vertex="1"><mxGeometry x="347.96" y="220" width="102.04" height="100" as="geometry"/></mxCell><mxCell id="41" value="" style="shape=image;verticalLabelPosition=bottom;labelBackgroundColor=#ffffff;verticalAlign=top;aspect=fixed;imageAspect=0;image=data:image/svg+xml,PHN2ZyB4bWxucz0iaHR0cDovL3d3dy53My5vcmcvMjAwMC9zdmciIHZpZXdCb3g9Ii0wLjM3MjYxNTMwNzU2OTUwMzggMCAyNTAuNjUwNDA1ODgzNzg5MDYgMjUwLjQ1ODgzMTc4NzEwOTM4IiB3aWR0aD0iMjUwLjY1MDQwNTg4Mzc4OTA2IiBoZWlnaHQ9IjI1MC40NTg4MzE3ODcxMDkzOCI+JiN4YTsgICYjeGE7PGcgdHJhbnNmb3JtPSJtYXRyaXgoMTAuNDE2NjY2NjY2NjY2NjY2LDAsMCwxMC40MTY2NjY2NjY2NjY2NjYsMCwwKSI+PGc+JiN4YTsgICAgPHBhdGggZD0iTTExLjcyLDIxLjA3YTUuNjUsNS42NSwwLDAsMC0yLjI0LTEuNzYsNi4zNCw2LjM0LDAsMCwwLS44MS0uMjYsMy43NCwzLjc0LDAsMCwwLDEuMTEtLjg2LDMuODMsMy44MywwLDAsMCwxLTIuMTlsLjI4LjExYS4zNS4zNSwwLDAsMCwuNDUtLjE4LjM0LjM0LDAsMCwwLDAtLjI4LjE2LjE2LDAsMCwwLC4wNy0uMDksNSw1LDAsMCwwLC44MS0yLjgxQTMuNDMsMy40MywwLDAsMCwxMiwxMS40M2EyLjkyLDIuOTIsMCwwLDAtLjU0LS43NiwzLjQzLDMuNDMsMCwwLDAtMi41NS0uOTJsLS4wNi0uMDdhNCw0LDAsMCwwLTQtLjM1LDUuNjIsNS42MiwwLDAsMC0xLjQ5Ljk1QTYuNjYsNi42NiwwLDAsMCwyLjE4LDExLjZhNS41MSw1LjUxLDAsMCwwLTEsMy44Ni4zMy4zMywwLDAsMC0uMDYuMTkuMzEuMzEsMCwwLDAsLjMzLjI4aC4zOWEzLjI1LDMuMjUsMCwwLDAsLjA5LjgxLDIuOTIsMi45MiwwLDAsMCwuMzcuOTIsNCw0LDAsMCwwLDIsMS42NCw3Ljg3LDcuODcsMCwwLDAtMywyLDYuMDksNi4wOSwwLDAsMC0uNzgsMS4xQTkuMTgsOS4xOCwwLDAsMCwwLDIzLjU3LjMuMywwLDAsMCwuMTgsMjRhLjMuMywwLDAsMCwuNC0uMTUsOCw4LDAsMCwxLC41OS0xLDUuMjgsNS4yOCwwLDAsMSwuNzYtLjg5LDcuNiw3LjYsMCwwLDEsMy40Mi0xLjcyLDYuNSw2LjUsMCwwLDEsMy43NS4xNSw0LjY5LDQuNjksMCwwLDEsMiwxLjMzLDcuOCw3LjgsMCwwLDEsMS4zNCwyLjExLjM1LjM1LDAsMCwwLC40NS4xOS4zNC4zNCwwLDAsMCwuMTktLjQ0QTguNTEsOC41MSwwLDAsMCwxMS43MiwyMS4wN1pNMy4wNiwxMi4yM2E4Ljc3LDguNzcsMCwwLDEsMS0xLjA4LDYuNzksNi43OSwwLDAsMSwxLjIxLS44MkEzLjU2LDMuNTYsMCwwLDEsNy45MiwxMGEuMzIuMzIsMCwwLDAtLjA3LjIzLjM0LjM0LDAsMCwwLC4zNy4zMUEyLjY3LDIuNjcsMCwwLDEsMTEsMTEuOTRhMy40LDMuNCwwLDAsMSwuMjguOTJBNC44NCw0Ljg0LDAsMCwxLDExLDE1LjI5YTAsMCwwLDAsMSwwLDAsOC45LDguOSwwLDAsMS0xLS42LDQuMjksNC4yOSwwLDAsMS0xLTFjLS4xNy0uMjQtLjYtMS0uNzktMS4zNUEuNzUuNzUsMCwwLDAsNy4yOCwxMmExLDEsMCwwLDAtLjI2LjIzYy0uMjMuMjUtLjcxLjg3LS45NCwxLjA4YTcuMjgsNy4yOCwwLDAsMS0xLjIxLjkyLDguMzcsOC4zNywwLDAsMS0xLjQuNzEsNC4xMiw0LjEyLDAsMCwxLS43Ni4yMmMtLjI3LjA1LS41NC4wOC0uODEuMTFBNC45NCw0Ljk0LDAsMCwxLDMuMDYsMTIuMjNaTTMsMTcuMThhMi4wOCwyLjA4LDAsMCwxLS4zNi0uNjUsMi42NywyLjY3LDAsMCwxLS4xNS0uNjJoLjMyYTUuMTQsNS4xNCwwLDAsMCwuOTMtLjE1LDguMjksOC4yOSwwLDAsMCwxLjY0LS42LDcuMDgsNy4wOCwwLDAsMCwxLjQ4LTFjLjE2LS4xNS40MS0uNDYuNjQtLjc0LjI0LjM1LjUxLjczLjY0Ljg5YTUuNDksNS40OSwwLDAsMCwxLjA2LjkzLDguNzYsOC43NiwwLDAsMCwuODUuNDcsMi45MywyLjkzLDAsMCwxLS45MywxLjgzLDMuMiwzLjIsMCwwLDEtMiwuODQsNS41NSw1LjU1LDAsMCwxLTIuNzItLjJBMy4yNiwzLjI2LDAsMCwxLDMsMTcuMThaIiBzdHlsZT0iZmlsbDogIzAwMDAwMCIvPiYjeGE7ICAgIDxwYXRoIGQ9Ik0xOC41NSw1LjRhMi44LDIuOCwwLDAsMC0uMTEtMS43MiwyLjMxLDIuMzEsMCwwLDAtMS4yNy0xLjI2LDIuNDgsMi40OCwwLDAsMC0xLjcyLDAsMi4zOSwyLjM5LDAsMCwwLTEuMzMsMS4yOCwyLjA2LDIuMDYsMCwwLDAsMCwxLjc4LjMxLjMxLDAsMCwwLC40LjE1LjMuMywwLDAsMCwuMTUtLjRBMS4zNSwxLjM1LDAsMCwxLDE0Ljg0LDRhMS40MywxLjQzLDAsMCwxLC45MS0uNjgsMS40OSwxLjQ5LDAsMCwxLDEsLjEzLDEuMTgsMS4xOCwwLDAsMSwuNjUuNjMsMS42OCwxLjY4LDAsMCwxLC4xNSwxQTEuMjgsMS4yOCwwLDAsMSwxNyw2Yy0uMTkuMTMtLjUzLjI0LS44LjM5YTEuNjEsMS42MSwwLDAsMC0uNDQuMzUsMS4yOCwxLjI4LDAsMCwwLS4xOS40MSwyLjY1LDIuNjUsMCwwLDAsMCwuNTYuMzUuMzUsMCwwLDAsLjY5LDAsMS42NSwxLjY1LDAsMCwxLDAtLjMxLjY5LjY5LDAsMCwxLC4xLS4xOWwxLjExLS40NEEyLjIyLDIuMjIsMCwwLDAsMTguNTUsNS40WiIgc3R5bGU9ImZpbGw6ICMwMDAwMDAiLz4mI3hhOyAgICA8cGF0aCBkPSJNMTUuNyw4LjgyYTEsMSwwLDAsMC0uNzguNi43My43MywwLDAsMCwuNjYuODcsMSwxLDAsMCwwLC44Ny0uNjFBLjguOCwwLDAsMCwxNS43LDguODJaIiBzdHlsZT0iZmlsbDogIzAwMDAwMCIvPiYjeGE7ICAgIDxwYXRoIGQ9Ik0yNCw1LjMxYzAtLjg2LDAtMi45NS0uMDUtMy44NWExLjMyLDEuMzIsMCwwLDAtLjI5LS44LDUuNTYsNS41NiwwLDAsMC0yLS40NEMyMC40MS4wOSwxOC43NiwwLDE3LjU5LDBjLS40NiwwLTQuMzYsMC02LjY1LjE4QTQuNzEsNC43MSwwLDAsMCw5LjA3LjU4Ljc3Ljc3LDAsMCwwLDguODguOWE2LjY5LDYuNjksMCwwLDAtLjE1LDEuMzFDOC42Myw0LDguNjcsNyw4LjY3LDcuNjZBLjM2LjM2LDAsMCwwLDksOGEuMzUuMzUsMCwwLDAsLjM0LS4zNWMwLS41MywwLTIuNDEuMS00LjA2LDAtLjg1LjA5LTEuNjMuMTYtMi4xMiwwLS4xMS4wNS0uMjIuMDYtLjI5cy4yNCwwLC4zNiwwYy42MS0uMDgsMS41Ni0uMTEsMi41OS0uMTMsMi4xNCwwLDQuNiwwLDQuOTUuMDUsMSwwLDIuMjcuMSwzLjM4LjIxLjcxLjA3LDEuMzQuMTUsMS43NC4yM2wuMDYsMHYwYy4wOC44NywwLDIuOSwwLDMuNzMsMCwuNS4wNywyLjI3LjA3LDMuODJhMTcuNDEsMTcuNDEsMCwwLDEtLjA3LDIsLjU2LjU2LDAsMCwxLDAsLjEyYy0uMTUsMC0uNDUuMTUtLjcuMTVhMTAuODcsMTAuODcsMCwwLDEtMS4wOSwwYy0xLjA1LS4wNi0yLjE4LS4xNS0yLjcxLS4xMmEuODUuODUsMCwwLDAtLjYuMjJjLS4yNS4yOS0uNDkuOTUtLjkzLDEuNjhhNi4xMyw2LjEzLDAsMCwxLS42OS45MiwyLjE5LDIuMTksMCwwLDEtMS42NC43MmMtLjA3LS41NiwwLTIuMDksMC0yLjc2YTEuMzQsMS4zNCwwLDAsMC0uMDctLjQyLjMzLjMzLDAsMCwwLS4yNC0uMTkuMy4zLDAsMCwwLS4zNS4yNXMwLDMuNDQuMDYsMy41NGEuNDkuNDksMCwwLDAsLjMyLjI1LDIuMjUsMi4yNSwwLDAsMCwxLjA1LDAsMy4xMiwzLjEyLDAsMCwwLDEuNDQtLjgxLDYuMjcsNi4yNywwLDAsMCwuODItMWMuMzktLjU5LjYyLTEuMTQuODMtMS40NGgwYy41LDAsMS42LjEyLDIuNi4yMWExMS42NCwxMS42NCwwLDAsMCwxLjY4LDAsMS42OCwxLjY4LDAsMCwwLDEtLjM0QTMuMywzLjMsMCwwLDAsMjQsMTAuNDNDMjQuMDYsOC43NSwyNCw2LDI0LDUuMzFaIiBzdHlsZT0iZmlsbDogIzMzOTdGQSIvPiYjeGE7ICA8L2c+PC9nPjwvc3ZnPg==;" parent="AAQ9BwyIkS6VjVYWZHyZ-1" vertex="1"><mxGeometry x="720" y="277.07" width="36" height="35.86" as="geometry"/></mxCell><mxCell id="42" value="" style="shape=image;verticalLabelPosition=bottom;labelBackgroundColor=#ffffff;verticalAlign=top;aspect=fixed;imageAspect=0;image=data:image/svg+xml,PHN2ZyB4bWxucz0iaHR0cDovL3d3dy53My5vcmcvMjAwMC9zdmciIHZpZXdCb3g9Ii0wLjIxMTI3MjIyNDc4Mzg5NzQgLTAuMjMxNjE4OTU1NzMxMzkxOSAyNTAuMzEyMDg4MDEyNjk1MyAyNTAuMjM0NTU4MTA1NDY4NzUiIHdpZHRoPSIyNTAuMzEyMDg4MDEyNjk1MyIgaGVpZ2h0PSIyNTAuMjM0NTU4MTA1NDY4NzUiPiYjeGE7ICAmI3hhOzxnIHRyYW5zZm9ybT0ibWF0cml4KDEwLjQxNjY2NjY2NjY2NjY2NiwwLDAsMTAuNDE2NjY2NjY2NjY2NjY2LDAsMCkiPjxnPiYjeGE7ICAgIDxwYXRoIGQ9Ik0xMS43MiwyMS4wOWE1LjY1LDUuNjUsMCwwLDAtMi4yNC0xLjc2LDYuMzQsNi4zNCwwLDAsMC0uODEtLjI2LDQsNCwwLDAsMCwxLjEyLS44N0EzLjgyLDMuODIsMCwwLDAsMTAuNzMsMTZsLjI4LjExYS4zNS4zNSwwLDAsMCwuNDUtLjE4LjM0LjM0LDAsMCwwLDAtLjI4LjIyLjIyLDAsMCwwLC4wNy0uMDksNS4xMSw1LjExLDAsMCwwLC44MS0yLjgxQTMuMTgsMy4xOCwwLDAsMCwxMiwxMS40NmEyLjU4LDIuNTgsMCwwLDAtLjUzLS43NywzLjQzLDMuNDMsMCwwLDAtMi41NS0uOTJsLS4wNi0uMDZhNCw0LDAsMCwwLTQtLjM1LDUuOCw1LjgsMCwwLDAtMS41Ljk0LDYuNTcsNi41NywwLDAsMC0xLjE1LDEuMzIsNS40Nyw1LjQ3LDAsMCwwLTEsMy44NkEuMjkuMjksMCwwLDAsMS41LDE2aC4zOGE0LjQ2LDQuNDYsMCwwLDAsLjA5LjgsMy4xNCwzLjE0LDAsMCwwLC4zOC45Myw0LDQsMCwwLDAsMiwxLjYzLDguMjMsOC4yMywwLDAsMC0zLDIsNi4wNyw2LjA3LDAsMCwwLS43NywxLjFBOS4xOCw5LjE4LDAsMCwwLDAsMjMuNThhLjMyLjMyLDAsMCwwLC4xNi40LjMyLjMyLDAsMCwwLC40LS4xNiw4LjcxLDguNzEsMCwwLDEsLjU5LTEuMDUsNS4yMiw1LjIyLDAsMCwxLC43NS0uODgsNy43LDcuNywwLDAsMSwzLjQzLTEuNzMsNi41NSw2LjU1LDAsMCwxLDMuNzQuMTYsNC42LDQuNiwwLDAsMSwyLDEuMzMsNy42MSw3LjYxLDAsMCwxLDEuMzQsMi4xLjM0LjM0LDAsMCwwLC40NC4xOS4zMy4zMywwLDAsMCwuMi0uNDRBOC40Nyw4LjQ3LDAsMCwwLDExLjcyLDIxLjA5Wk0zLjA3LDEyLjI1YTYuOTQsNi45NCwwLDAsMSwxLTEuMDcsNiw2LDAsMCwxLDEuMi0uODNBMy41NiwzLjU2LDAsMCwxLDcuOTIsMTBhLjMzLjMzLDAsMCwwLC4zLjUzQTIuNjksMi42OSwwLDAsMSwxMSwxMmEzLjUsMy41LDAsMCwxLC4yNy45MkE0LjcyLDQuNzIsMCwwLDEsMTEsMTUuMzFhMCwwLDAsMCwxLDAsMCw4LjksOC45LDAsMCwxLTEtLjYsNC4yOSw0LjI5LDAsMCwxLTEtMWMtLjE3LS4yNC0uNTktMS0uNzgtMS4zNUEuNzcuNzcsMCwwLDAsNy4yOSwxMmExLDEsMCwwLDAtLjI3LjIzYy0uMjMuMjYtLjcuODctLjk0LDEuMDhhNi40NCw2LjQ0LDAsMCwxLTEuMjEuOTJBOC4yOCw4LjI4LDAsMCwxLDMuNDgsMTVhNC4zNSw0LjM1LDAsMCwxLS43Ni4yMmMtLjI3LjA1LS41NC4wOC0uODEuMTFBNC45NCw0Ljk0LDAsMCwxLDMuMDcsMTIuMjVaTTMsMTcuMmEyLjQ0LDIuNDQsMCwwLDEtLjM2LS42NSwzLjQ2LDMuNDYsMCwwLDEtLjE0LS42MmguMzFhNSw1LDAsMCwwLC45My0uMTUsOC4wNiw4LjA2LDAsMCwwLDEuNjQtLjYsNi43MSw2LjcxLDAsMCwwLDEuNDgtMSw5LjYzLDkuNjMsMCwwLDAsLjY1LS43NGMuMjMuMzUuNS43NC42My44OWE1LjQ5LDUuNDksMCwwLDAsMS4wNi45Myw4Ljc2LDguNzYsMCwwLDAsLjg1LjQ3LDIuOTMsMi45MywwLDAsMS0uOTMsMS44MywzLjE4LDMuMTgsMCwwLDEtMiwuODQsNS41MSw1LjUxLDAsMCwxLTIuNzEtLjJBMy40MywzLjQzLDAsMCwxLDMsMTcuMloiIHN0eWxlPSJmaWxsOiAjMDAwMDAwIi8+JiN4YTsgICAgPHBhdGggZD0iTTIzLjg5LDUuMzNjMC0uNzMsMC0yLjM4LS4wOS0zLjM4YTUuMzgsNS4zOCwwLDAsMC0uMTEtLjg1LjUzLjUzLDAsMCwwLS4xOC0uMjlBMy4wNiwzLjA2LDAsMCwwLDIyLjQ1LjU1Yy0xLS4xMy0yLjU0LS4yNS0zLjUzLS4zYS4zMy4zMywwLDAsMC0uMzYuMzEuMzUuMzUsMCwwLDAsLjMxLjM3Yy42LDAsMS40MS4xNCwyLjE3LjI0czEuMzEuMTgsMS43LjI2bC4xMywwYS41OS41OSwwLDAsMSwwLC4xM2MuMDcuODcsMCwyLjkxLDAsMy43NCwwLC41LDAsMi4yNywwLDMuODEsMCwuNjYsMCwxLjYyLS4wNywyLjA4YTguNTIsOC41MiwwLDAsMS0xLjgxLDBjLTEuMDUtLjA2LTIuMi0uMTYtMi43Mi0uMTNhMSwxLDAsMCwwLS42Ni4yNWMtLjI0LjI5LS40OSwxLS45MiwxLjY5QTUuOTQsNS45NCwwLDAsMSwxNiwxNGEyLjE5LDIuMTksMCwwLDEtMS41OC43M2MtLjA3LS41NywwLTIuMDcsMC0yLjcyYTEuMjgsMS4yOCwwLDAsMC0uMDctLjQyLjM0LjM0LDAsMCwwLS4yNS0uMTkuMy4zLDAsMCwwLS4zNS4yNHMwLDMuNDUsMCwzLjU1YS40OS40OSwwLDAsMCwuMzQuMjcsMi40NCwyLjQ0LDAsMCwwLDEuMDcsMCwzLDMsMCwwLDAsMS40Ni0uODEsNi40NCw2LjQ0LDAsMCwwLC44NC0xYy4zNy0uNTYuNi0xLjA5LjgxLTEuMzloMGMuNTEsMCwxLjU5LjExLDIuNi4yYTEwLjg2LDEwLjg2LDAsMCwwLDEuNjgsMCwxLjY1LDEuNjUsMCwwLDAsMS0uMzZBMy4yNCwzLjI0LDAsMCwwLDI0LDEwLjQ1QzI0LjA1LDguNzgsMjMuODksNiwyMy44OSw1LjMzWiIgc3R5bGU9ImZpbGw6ICMzMzk3RkEiLz4mI3hhOyAgICA8cGF0aCBkPSJNOSw4YS4zNC4zNCwwLDAsMCwuMzQtLjM0YzAtLjU2LjE2LTIuNTcuMjctNC4yNSwwLS43LjA4LTEuMzMuMTMtMS43OGExLjYzLDEuNjMsMCwwLDAsMC0uMzFjLjA5LDAsLjIsMCwuMywwLC4zOS0uMDYuOTMtLjE0LDEuNTMtLjJTMTMuMTMsMSwxMy44NS45MWEuMy4zLDAsMCwwLC4zLS4zMS4zMS4zMSwwLDAsMC0uMzEtLjI5QzEyLjU5LjI1LDExLjExLjE5LDEwLjE4LjIzQTIuNTcsMi41NywwLDAsMCw5LC41MSwxLjA2LDEuMDYsMCwwLDAsOC43MSwxYTEwLjIyLDEwLjIyLDAsMCwwLS4xOCwxLjkzYzAsMS43OC4xMiw0LjE1LjE0LDQuNzdBLjM1LjM1LDAsMCwwLDksOFoiIHN0eWxlPSJmaWxsOiAjMzM5N0ZBIi8+JiN4YTsgICAgPHBhdGggZD0iTTE0LjUyLDcuODRhMy4yLDMuMiwwLDAsMCwyLjY5LjA5QTMuMDYsMy4wNiwwLDAsMCwxOSw2YTIuODUsMi44NSwwLDAsMCwwLTEuNjFBMi4xNSwyLjE1LDAsMCwwLDE4LDMuMTQsMi43OCwyLjc4LDAsMCwwLDE3LjQ4LDNhMS44NCwxLjg0LDAsMCwwLS41NS0uMDcuMzIuMzIsMCwwLDAtLjIyLjEuMzQuMzQsMCwwLDAtLjIxLS4xNCwyLjgsMi44LDAsMCwwLTEuMzUsMCwyLjUzLDIuNTMsMCwwLDAtMS4yMi43MSwyLjg4LDIuODgsMCwwLDAtLjczLDIuMjJBMi42MiwyLjYyLDAsMCwwLDE0LjUyLDcuODRabS4wNS0zLjcyYTEuNjQsMS42NCwwLDAsMSwuNzktLjU4LDIuMTEsMi4xMSwwLDAsMSwxLS4xMS4yOC4yOCwwLDAsMCwuMjUtLjA2LjM2LjM2LDAsMCwwLC4zMi4yLDEuMjgsMS4yOCwwLDAsMSwuMzIuMDYsMS4zNywxLjM3LDAsMCwxLC4zMi4xNiwxLjMxLDEuMzEsMCwwLDEsLjU5LjgzLDEuODEsMS44MSwwLDAsMS0uMDcsMS4wOEEyLjEzLDIuMTMsMCwwLDEsMTYuOCw2Ljg4YTIuMTksMi4xOSwwLDAsMS0xLjc0LDAsMS41OCwxLjU4LDAsMCwxLS44My0xLjE4QTIsMiwwLDAsMSwxNC41Nyw0LjEyWiIgc3R5bGU9ImZpbGw6ICMwMDAwMDAiLz4mI3hhOyAgICA8cGF0aCBkPSJNMTcuODYsOC44N2EuMzUuMzUsMCwwLDAtLjQ3LS4xMiwxLjYyLDEuNjIsMCwwLDEtLjUyLjA4Yy0uMTgsMC0uMzcsMC0uNTcsMGgtLjU2YTUuMTEsNS4xMSwwLDAsMS0xLjE3LDAsLjMuMywwLDAsMC0uNC4xNS4zMS4zMSwwLDAsMCwuMTYuNCwzLjE0LDMuMTQsMCwwLDAsMS4xNS41NGgwYS41Ni41NiwwLDAsMCwwLC4xMi42Ni42NiwwLDAsMCwwLC4yOCwyLjUxLDIuNTEsMCwwLDAsLjIyLjcuMzUuMzUsMCwwLDAsLjM2LjMzLjM0LjM0LDAsMCwwLC4zMi0uMzYsMy44MSwzLjgxLDAsMCwwLC4yMy0uNjUuNzcuNzcsMCwwLDAsMC0uMjZjMC0uMDYsMC0uMTEsMC0uMTZhMywzLDAsMCwwLDEuMTktLjU1QS4zNC4zNCwwLDAsMCwxNy44Niw4Ljg3WiIgc3R5bGU9ImZpbGw6ICMwMDAwMDAiLz4mI3hhOyAgICA8cGF0aCBkPSJNMTIuMDcsMi44N2EuNTcuNTcsMCwwLDAtLjIzLS4xMiwxLjU0LDEuNTQsMCwwLDAtLjY3LDAsLjI5LjI5LDAsMCwwLS4zOC4xOS4zLjMsMCwwLDAsLjE5LjM4Yy4xMy4xMi4xNS4yNy4yOC40MWEuNDcuNDcsMCwwLDAsLjE1LjEzLDQuMDcsNC4wNywwLDAsMCwuNzEuMjYuMzUuMzUsMCwwLDAsLjQzLS41NCw1LjQsNS40LDAsMCwwLS4zLS40OUEuNzMuNzMsMCwwLDAsMTIuMDcsMi44N1oiIHN0eWxlPSJmaWxsOiAjMDAwMDAwIi8+JiN4YTsgICAgPHBhdGggZD0iTTIwLjMsMy43OWMuMi0uMDcuMzktLjA3LjYyLS4xNWExLDEsMCwwLDAsLjIzLS4xMiwxLjU0LDEuNTQsMCwwLDAsLjE5LS4xN2MuMTctLjE3LjI4LS4zMy40Mi0uNDlhLjM0LjM0LDAsMCwwLC4xMS0uNDcuMzUuMzUsMCwwLDAtLjQ3LS4xMiw0LjM2LDQuMzYsMCwwLDAtLjY0LjE3LDEuMzYsMS4zNiwwLDAsMC0uMjUuMTEuOTEuOTEsMCwwLDAtLjIxLjE4LDIuOCwyLjgsMCwwLDAtLjM4LjU5LjMuMywwLDAsMC0uMDUuNDJBLjMxLjMxLDAsMCwwLDIwLjMsMy43OVoiIHN0eWxlPSJmaWxsOiAjMDAwMDAwIi8+JiN4YTsgICAgPHBhdGggZD0iTTE1LjkyLDEuNzdhLjMxLjMxLDAsMCwwLC42MSwwLDIuNDIsMi40MiwwLDAsMCwuMjUtLjUxLjU4LjU4LDAsMCwwLDAtLjIzLjg1Ljg1LDAsMCwwLDAtLjIzLDIuMzYsMi4zNiwwLDAsMC0uMjYtLjU1LjM0LjM0LDAsMCwwLS42Ny4xNGMwLC4xNC0uMTEuMjctLjE1LjQ2YS42NC42NCwwLDAsMCwwLC4yLjY0LjY0LDAsMCwwLDAsLjJBMywzLDAsMCwwLDE1LjkyLDEuNzdaIiBzdHlsZT0iZmlsbDogIzAwMDAwMCIvPiYjeGE7ICA8L2c+PC9nPjwvc3ZnPg==;" parent="AAQ9BwyIkS6VjVYWZHyZ-1" vertex="1"><mxGeometry x="156" y="416" width="36" height="36" as="geometry"/></mxCell><mxCell id="44" value="" style="shape=image;verticalLabelPosition=bottom;labelBackgroundColor=#ffffff;verticalAlign=top;aspect=fixed;imageAspect=0;image=data:image/svg+xml,PHN2ZyB4bWxucz0iaHR0cDovL3d3dy53My5vcmcvMjAwMC9zdmciIHZpZXdCb3g9Ii0wLjM3MjYxNTMwNzU2OTUwMzggMCAyNTAuNjUwNDA1ODgzNzg5MDYgMjUwLjQ1ODgzMTc4NzEwOTM4IiB3aWR0aD0iMjUwLjY1MDQwNTg4Mzc4OTA2IiBoZWlnaHQ9IjI1MC40NTg4MzE3ODcxMDkzOCI+JiN4YTsgICYjeGE7PGcgdHJhbnNmb3JtPSJtYXRyaXgoMTAuNDE2NjY2NjY2NjY2NjY2LDAsMCwxMC40MTY2NjY2NjY2NjY2NjYsMCwwKSI+PGc+JiN4YTsgICAgPHBhdGggZD0iTTExLjcyLDIxLjA3YTUuNjUsNS42NSwwLDAsMC0yLjI0LTEuNzYsNi4zNCw2LjM0LDAsMCwwLS44MS0uMjYsMy43NCwzLjc0LDAsMCwwLDEuMTEtLjg2LDMuODMsMy44MywwLDAsMCwxLTIuMTlsLjI4LjExYS4zNS4zNSwwLDAsMCwuNDUtLjE4LjM0LjM0LDAsMCwwLDAtLjI4LjE2LjE2LDAsMCwwLC4wNy0uMDksNSw1LDAsMCwwLC44MS0yLjgxQTMuNDMsMy40MywwLDAsMCwxMiwxMS40M2EyLjkyLDIuOTIsMCwwLDAtLjU0LS43NiwzLjQzLDMuNDMsMCwwLDAtMi41NS0uOTJsLS4wNi0uMDdhNCw0LDAsMCwwLTQtLjM1LDUuNjIsNS42MiwwLDAsMC0xLjQ5Ljk1QTYuNjYsNi42NiwwLDAsMCwyLjE4LDExLjZhNS41MSw1LjUxLDAsMCwwLTEsMy44Ni4zMy4zMywwLDAsMC0uMDYuMTkuMzEuMzEsMCwwLDAsLjMzLjI4aC4zOWEzLjI1LDMuMjUsMCwwLDAsLjA5LjgxLDIuOTIsMi45MiwwLDAsMCwuMzcuOTIsNCw0LDAsMCwwLDIsMS42NCw3Ljg3LDcuODcsMCwwLDAtMywyLDYuMDksNi4wOSwwLDAsMC0uNzgsMS4xQTkuMTgsOS4xOCwwLDAsMCwwLDIzLjU3LjMuMywwLDAsMCwuMTgsMjRhLjMuMywwLDAsMCwuNC0uMTUsOCw4LDAsMCwxLC41OS0xLDUuMjgsNS4yOCwwLDAsMSwuNzYtLjg5LDcuNiw3LjYsMCwwLDEsMy40Mi0xLjcyLDYuNSw2LjUsMCwwLDEsMy43NS4xNSw0LjY5LDQuNjksMCwwLDEsMiwxLjMzLDcuOCw3LjgsMCwwLDEsMS4zNCwyLjExLjM1LjM1LDAsMCwwLC40NS4xOS4zNC4zNCwwLDAsMCwuMTktLjQ0QTguNTEsOC41MSwwLDAsMCwxMS43MiwyMS4wN1pNMy4wNiwxMi4yM2E4Ljc3LDguNzcsMCwwLDEsMS0xLjA4LDYuNzksNi43OSwwLDAsMSwxLjIxLS44MkEzLjU2LDMuNTYsMCwwLDEsNy45MiwxMGEuMzIuMzIsMCwwLDAtLjA3LjIzLjM0LjM0LDAsMCwwLC4zNy4zMUEyLjY3LDIuNjcsMCwwLDEsMTEsMTEuOTRhMy40LDMuNCwwLDAsMSwuMjguOTJBNC44NCw0Ljg0LDAsMCwxLDExLDE1LjI5YTAsMCwwLDAsMSwwLDAsOC45LDguOSwwLDAsMS0xLS42LDQuMjksNC4yOSwwLDAsMS0xLTFjLS4xNy0uMjQtLjYtMS0uNzktMS4zNUEuNzUuNzUsMCwwLDAsNy4yOCwxMmExLDEsMCwwLDAtLjI2LjIzYy0uMjMuMjUtLjcxLjg3LS45NCwxLjA4YTcuMjgsNy4yOCwwLDAsMS0xLjIxLjkyLDguMzcsOC4zNywwLDAsMS0xLjQuNzEsNC4xMiw0LjEyLDAsMCwxLS43Ni4yMmMtLjI3LjA1LS41NC4wOC0uODEuMTFBNC45NCw0Ljk0LDAsMCwxLDMuMDYsMTIuMjNaTTMsMTcuMThhMi4wOCwyLjA4LDAsMCwxLS4zNi0uNjUsMi42NywyLjY3LDAsMCwxLS4xNS0uNjJoLjMyYTUuMTQsNS4xNCwwLDAsMCwuOTMtLjE1LDguMjksOC4yOSwwLDAsMCwxLjY0LS42LDcuMDgsNy4wOCwwLDAsMCwxLjQ4LTFjLjE2LS4xNS40MS0uNDYuNjQtLjc0LjI0LjM1LjUxLjczLjY0Ljg5YTUuNDksNS40OSwwLDAsMCwxLjA2LjkzLDguNzYsOC43NiwwLDAsMCwuODUuNDcsMi45MywyLjkzLDAsMCwxLS45MywxLjgzLDMuMiwzLjIsMCwwLDEtMiwuODQsNS41NSw1LjU1LDAsMCwxLTIuNzItLjJBMy4yNiwzLjI2LDAsMCwxLDMsMTcuMThaIiBzdHlsZT0iZmlsbDogIzAwMDAwMCIvPiYjeGE7ICAgIDxwYXRoIGQ9Ik0xOC41NSw1LjRhMi44LDIuOCwwLDAsMC0uMTEtMS43MiwyLjMxLDIuMzEsMCwwLDAtMS4yNy0xLjI2LDIuNDgsMi40OCwwLDAsMC0xLjcyLDAsMi4zOSwyLjM5LDAsMCwwLTEuMzMsMS4yOCwyLjA2LDIuMDYsMCwwLDAsMCwxLjc4LjMxLjMxLDAsMCwwLC40LjE1LjMuMywwLDAsMCwuMTUtLjRBMS4zNSwxLjM1LDAsMCwxLDE0Ljg0LDRhMS40MywxLjQzLDAsMCwxLC45MS0uNjgsMS40OSwxLjQ5LDAsMCwxLDEsLjEzLDEuMTgsMS4xOCwwLDAsMSwuNjUuNjMsMS42OCwxLjY4LDAsMCwxLC4xNSwxQTEuMjgsMS4yOCwwLDAsMSwxNyw2Yy0uMTkuMTMtLjUzLjI0LS44LjM5YTEuNjEsMS42MSwwLDAsMC0uNDQuMzUsMS4yOCwxLjI4LDAsMCwwLS4xOS40MSwyLjY1LDIuNjUsMCwwLDAsMCwuNTYuMzUuMzUsMCwwLDAsLjY5LDAsMS42NSwxLjY1LDAsMCwxLDAtLjMxLjY5LjY5LDAsMCwxLC4xLS4xOWwxLjExLS40NEEyLjIyLDIuMjIsMCwwLDAsMTguNTUsNS40WiIgc3R5bGU9ImZpbGw6ICMwMDAwMDAiLz4mI3hhOyAgICA8cGF0aCBkPSJNMTUuNyw4LjgyYTEsMSwwLDAsMC0uNzguNi43My43MywwLDAsMCwuNjYuODcsMSwxLDAsMCwwLC44Ny0uNjFBLjguOCwwLDAsMCwxNS43LDguODJaIiBzdHlsZT0iZmlsbDogIzAwMDAwMCIvPiYjeGE7ICAgIDxwYXRoIGQ9Ik0yNCw1LjMxYzAtLjg2LDAtMi45NS0uMDUtMy44NWExLjMyLDEuMzIsMCwwLDAtLjI5LS44LDUuNTYsNS41NiwwLDAsMC0yLS40NEMyMC40MS4wOSwxOC43NiwwLDE3LjU5LDBjLS40NiwwLTQuMzYsMC02LjY1LjE4QTQuNzEsNC43MSwwLDAsMCw5LjA3LjU4Ljc3Ljc3LDAsMCwwLDguODguOWE2LjY5LDYuNjksMCwwLDAtLjE1LDEuMzFDOC42Myw0LDguNjcsNyw4LjY3LDcuNjZBLjM2LjM2LDAsMCwwLDksOGEuMzUuMzUsMCwwLDAsLjM0LS4zNWMwLS41MywwLTIuNDEuMS00LjA2LDAtLjg1LjA5LTEuNjMuMTYtMi4xMiwwLS4xMS4wNS0uMjIuMDYtLjI5cy4yNCwwLC4zNiwwYy42MS0uMDgsMS41Ni0uMTEsMi41OS0uMTMsMi4xNCwwLDQuNiwwLDQuOTUuMDUsMSwwLDIuMjcuMSwzLjM4LjIxLjcxLjA3LDEuMzQuMTUsMS43NC4yM2wuMDYsMHYwYy4wOC44NywwLDIuOSwwLDMuNzMsMCwuNS4wNywyLjI3LjA3LDMuODJhMTcuNDEsMTcuNDEsMCwwLDEtLjA3LDIsLjU2LjU2LDAsMCwxLDAsLjEyYy0uMTUsMC0uNDUuMTUtLjcuMTVhMTAuODcsMTAuODcsMCwwLDEtMS4wOSwwYy0xLjA1LS4wNi0yLjE4LS4xNS0yLjcxLS4xMmEuODUuODUsMCwwLDAtLjYuMjJjLS4yNS4yOS0uNDkuOTUtLjkzLDEuNjhhNi4xMyw2LjEzLDAsMCwxLS42OS45MiwyLjE5LDIuMTksMCwwLDEtMS42NC43MmMtLjA3LS41NiwwLTIuMDksMC0yLjc2YTEuMzQsMS4zNCwwLDAsMC0uMDctLjQyLjMzLjMzLDAsMCwwLS4yNC0uMTkuMy4zLDAsMCwwLS4zNS4yNXMwLDMuNDQuMDYsMy41NGEuNDkuNDksMCwwLDAsLjMyLjI1LDIuMjUsMi4yNSwwLDAsMCwxLjA1LDAsMy4xMiwzLjEyLDAsMCwwLDEuNDQtLjgxLDYuMjcsNi4yNywwLDAsMCwuODItMWMuMzktLjU5LjYyLTEuMTQuODMtMS40NGgwYy41LDAsMS42LjEyLDIuNi4yMWExMS42NCwxMS42NCwwLDAsMCwxLjY4LDAsMS42OCwxLjY4LDAsMCwwLDEtLjM0QTMuMywzLjMsMCwwLDAsMjQsMTAuNDNDMjQuMDYsOC43NSwyNCw2LDI0LDUuMzFaIiBzdHlsZT0iZmlsbDogIzMzOTdGQSIvPiYjeGE7ICA8L2c+PC9nPjwvc3ZnPg==;" parent="AAQ9BwyIkS6VjVYWZHyZ-1" vertex="1"><mxGeometry x="389" y="487.06" width="36" height="35.88" as="geometry"/></mxCell><mxCell id="45" value="" style="shape=image;verticalLabelPosition=bottom;labelBackgroundColor=#ffffff;verticalAlign=top;aspect=fixed;imageAspect=0;image=data:image/svg+xml,PHN2ZyB4bWxucz0iaHR0cDovL3d3dy53My5vcmcvMjAwMC9zdmciIHZpZXdCb3g9Ii0wLjAxNTk2Mjk0OTAyMjY1MDcyIDAuNjM3NDQ0NDM2NTUwMTQwNCAyNDkuODk1NTk5MzY1MjM0MzggMjQ5LjI4NDM3ODA1MTc1NzgiIHdpZHRoPSIyNDkuODk1NTk5MzY1MjM0MzgiIGhlaWdodD0iMjQ5LjI4NDM3ODA1MTc1NzgiPiYjeGE7ICAmI3hhOzxnIHRyYW5zZm9ybT0ibWF0cml4KDEwLjQxNjY2NjY2NjY2NjY2NiwwLDAsMTAuNDE2NjY2NjY2NjY2NjY2LDAsMCkiPjxnPiYjeGE7ICAgIDxwYXRoIGQ9Ik0xMy40OCwxOS4wOGMtLjI3LS4wNy0uNTgtLjQ0LS44NS0uODJhNCw0LDAsMCwxLS42LTEuMTVjLS4zNi0xLjQxLjE2LTMuMzUtLjUxLTUuMTJBNS4zLDUuMywwLDAsMCw5LDkuMjhhNC4wNiw0LjA2LDAsMCwwLTMuMTQtLjM0LDQuODEsNC44MSwwLDAsMC0yLjUsMS44NSw3LjI3LDcuMjcsMCwwLDAtLjc0LDEuNDUsNy41NCw3LjU0LDAsMCwwLS40MSwxLjU2Yy0uMTMsMS4xMy4wOSwyLjMyLS4xMSwzLjM1YTIuMzYsMi4zNiwwLDAsMS0xLDEuNjEsMy4xOCwzLjE4LDAsMCwxLS40LjIzLDEuNCwxLjQsMCwwLDEtLjQxLjEzLjM1LjM1LDAsMCwwLS4yNS4xOS4zMS4zMSwwLDAsMCwwLC4zMSwzLjU0LDMuNTQsMCwwLDAsLjY1Ljc1LDEuNDYsMS40NiwwLDAsMCwuNjcuMzcuMzIuMzIsMCwwLDAsLjM1LS4yNS4yOS4yOSwwLDAsMC0uMjUtLjM0QTEuMDcsMS4wNywwLDAsMSwxLDE5LjgxYTEuMDcsMS4wNywwLDAsMS0uMTQtLjE2bC4wOCwwYTIuNzgsMi43OCwwLDAsMCwuNTEtLjI3LDMuMDksMy4wOSwwLDAsMCwxLjQ0LTIsNyw3LDAsMCwwLC4xNi0xLjU0LDQuNjQsNC42NCwwLDAsMCwuNiwxLjczLDUsNSwwLDAsMCwxLjYsMS42OCw3LjM1LDcuMzUsMCwwLDAtMy4zNSwyLjEzLDUuODYsNS44NiwwLDAsMC0uNTkuODQsOC41Nyw4LjU3LDAsMCwwLS42MywxLjM2LjMuMywwLDAsMCwuMTYuMzkuMy4zLDAsMCwwLC4zOS0uMTYsOC44MSw4LjgxLDAsMCwxLC41Ni0xLDQuNDEsNC40MSwwLDAsMSwuNy0uODUsNy4wOSw3LjA5LDAsMCwxLDMuMTctMS42NSw1Ljg0LDUuODQsMCwwLDEsMy40OC4xNEE0LjMzLDQuMzMsMCwwLDEsMTEsMjEuNjhhNy41MSw3LjUxLDAsMCwxLDEuMjUsMiwuMzMuMzMsMCwwLDAsLjQ0LjIuMzUuMzUsMCwwLDAsLjItLjQ0LDguMzUsOC4zNSwwLDAsMC0xLjIxLTIuMzIsNS4zOCw1LjM4LDAsMCwwLTIuMTEtMS43Miw0LjQyLDQuNDIsMCwwLDAtLjQ4LS4xNSw0LjI3LDQuMjcsMCwwLDAsLjc5LS41N0E1LjkzLDUuOTMsMCwwLDAsMTEsMTdsLjA4LS4xOGE0LjY0LDQuNjQsMCwwLDAsLjExLjUxLDUuMjYsNS4yNiwwLDAsMCwxLDEuNjQsMy4zOSwzLjM5LDAsMCwwLC43MS42M2MwLC4wNi0uMDcuMTEtLjEuMTZhLjc3Ljc3LDAsMCwxLS4zMy4yNi4zNC4zNCwwLDAsMC0uMi40NC4zMy4zMywwLDAsMCwuNDMuMiwxLjIzLDEuMjMsMCwwLDAsLjU1LS4zNiwyLjU1LDIuNTUsMCwwLDAsLjQ2LS43MS4zNC4zNCwwLDAsMCwwLS4zMUEuMzUuMzUsMCwwLDAsMTMuNDgsMTkuMDhabS0zLjIxLTIuNDdhNC42Niw0LjY2LDAsMCwxLTEuMDgsMS4zLDIuOTIsMi45MiwwLDAsMS0uODYuNDgsMy4yMSwzLjIxLDAsMCwxLTEsLjIsMi4yNywyLjI3LDAsMCwxLS43My0uMDcsMy4zMiwzLjMyLDAsMCwxLS43My0uMjMsMy44OCwzLjg4LDAsMCwxLTEuNS0xLjIzLDMuNjksMy42OSwwLDAsMS0uNy0xLjY3Yy42NSwwLDEuMy4wOSwxLjk1LjExLjQzLDAsLjg2LDAsMS4yOSwwcy44NiwwLDEuMjktLjA4Yy44Ni0uMDcsMS43MS0uMTcsMi41Ni0uMjdBMy42MywzLjYzLDAsMCwxLDEwLjI3LDE2LjYxWk05LjE0LDE0LjM2YTMuMjQsMy4yNCwwLDAsMCwwLS41NGMwLS4zMi0uMTMtLjYxLS4yLTFhLjMyLjMyLDAsMCwwLS4zMy0uMjguMy4zLDAsMCwwLS4yNy4zMyw5LjM3LDkuMzcsMCwwLDAtLjA2LDEsMy43OSwzLjc5LDAsMCwwLC4wNy40NUg2LjlxLS42NSwwLTEuMjkuMDZjLS44My4wNy0xLjY1LjE3LTIuNDcuMjUsMC0uMjMsMC0uNDcuMDctLjdhNi41LDYuNSwwLDAsMSwuNDEtMS4zMSw1Ljg4LDUuODgsMCwwLDEsLjY2LTEuMkEzLjcxLDMuNzEsMCwwLDEsNi4yLDEwYTMsMywwLDAsMSwyLjI3LjI0LDQuMjMsNC4yMywwLDAsMSwyLjA4LDIuMSw2LDYsMCwwLDEsLjQyLDJaIiBzdHlsZT0iZmlsbDogIzAwMDAwMCIvPiYjeGE7ICAgIDxwYXRoIGQ9Ik0yMy44OSw1LjRjMC0uNzQsMC0yLjM5LS4wOC0zLjM5YTUuNzUsNS43NSwwLDAsMC0uMTEtLjg2LjYxLjYxLDAsMCwwLS4xOC0uMjhBMy4zMiwzLjMyLDAsMCwwLDIyLjQ1LjZjLTEtLjEyLTIuNTMtLjI0LTMuNTItLjNhLjM1LjM1LDAsMCwwLS4zNy4zMi4zNS4zNSwwLDAsMCwuMzIuMzdjLjYuMDUsMS40MS4xNCwyLjE3LjI0czEuMy4xOCwxLjcuMjZsLjEyLDBhLjI4LjI4LDAsMCwxLDAsLjEzYy4wNy44NywwLDIuOTEsMCwzLjc0LDAsLjUsMCwyLjI3LDAsMy44MiwwLC42NSwwLDEuNjItLjA4LDIuMDdhOC40Myw4LjQzLDAsMCwxLTEuOC4wNWMtMS4wNi0uMDYtMi4yLS4xNi0yLjczLS4xMmExLDEsMCwwLDAtLjY2LjI0Yy0uMjQuMy0uNDksMS0uOTIsMS43YTUuMzUsNS4zNSwwLDAsMS0uNjcuOTIsMi4yMywyLjIzLDAsMCwxLTEuNTcuNzNjLS4wOC0uNTgsMC0yLjA4LDAtMi43M2ExLjM0LDEuMzQsMCwwLDAtLjA3LS40Mi4zNi4zNiwwLDAsMC0uMjUtLjE5LjMuMywwLDAsMC0uMzUuMjVzMCwzLjQ1LDAsMy41NWEuNDkuNDksMCwwLDAsLjM0LjI3LDIuNDQsMi40NCwwLDAsMCwxLjA3LDAsMy4xNCwzLjE0LDAsMCwwLDEuNDctLjgyLDYsNiwwLDAsMCwuODQtMWMuMzctLjU2LjYtMS4wOS44LTEuMzloMGMuNSwwLDEuNTkuMTIsMi41OS4yMWExMSwxMSwwLDAsMCwxLjY5LDAsMS42NSwxLjY1LDAsMCwwLDEtLjM3LDMuMDgsMy4wOCwwLDAsMCwuMzgtMS42QzI0LjA2LDguODQsMjMuOSw2LjA1LDIzLjg5LDUuNFoiIHN0eWxlPSJmaWxsOiAjMzM5N0ZBIi8+JiN4YTsgICAgPHBhdGggZD0iTTksOC4xYS4zNS4zNSwwLDAsMCwuMzUtLjM1YzAtLjU1LjE2LTIuNTcuMjctNC4yNSwwLS43LjA4LTEuMzMuMTMtMS43OCwwLS4xLDAtLjIyLDAtLjMxYTIuODUsMi44NSwwLDAsMCwuMjksMGMuNC0uMDcuOTQtLjE0LDEuNTQtLjJTMTMuMTMsMSwxMy44NSwxYS4zLjMsMCwxLDAsMC0uNkMxMi41OS4zMSwxMS4xMS4yNSwxMC4xNy4yOUEyLjU2LDIuNTYsMCwwLDAsOSwuNTdhLjkyLjkyLDAsMCwwLS4yNi40OEE5LjM1LDkuMzUsMCwwLDAsOC41MywzYzAsMS43OC4xMSw0LjE2LjE0LDQuNzdBLjM1LjM1LDAsMCwwLDksOC4xWiIgc3R5bGU9ImZpbGw6ICMzMzk3RkEiLz4mI3hhOyAgICA8cGF0aCBkPSJNMTMuMiw1Ljg2YTIuNjYsMi42NiwwLDAsMCwxLjMyLDIuMDUsMy4yMiwzLjIyLDAsMCwwLDIuNy4wOCwzLjA4LDMuMDgsMCwwLDAsMS44My0xLjk0LDIuNzYsMi43NiwwLDAsMCwwLTEuNjFBMi4xMSwyLjExLDAsMCwwLDE4LDMuMiwyLjA5LDIuMDksMCwwLDAsMTcuNDksM2ExLjg4LDEuODgsMCwwLDAtLjU1LS4wNy4zNy4zNywwLDAsMC0uMjMuMS4zLjMsMCwwLDAtLjItLjE0LDIuODQsMi44NCwwLDAsMC0xLjM2LDAsMi42MSwyLjYxLDAsMCwwLTEuMjIuNzFBMi44OSwyLjg5LDAsMCwwLDEzLjIsNS44NlptMS4zNy0xLjY4YTEuNjksMS42OSwwLDAsMSwuNzktLjU4LDIuMTUsMi4xNSwwLDAsMSwxLS4xMS4yNi4yNiwwLDAsMCwuMjQtLjA2LjM2LjM2LDAsMCwwLC4zMi4yLDEuMjgsMS4yOCwwLDAsMSwuMzIuMDYsMS4zNywxLjM3LDAsMCwxLC4zMi4xNiwxLjMyLDEuMzIsMCwwLDEsLjYuODQsMS44NywxLjg3LDAsMCwxLS4wOCwxLjA3LDIuMDksMi4wOSwwLDAsMS0xLjMxLDEuMTgsMi4xMywyLjEzLDAsMCwxLTEuNzUtLjA1LDEuNTgsMS41OCwwLDAsMS0uODMtMS4xN0EyLDIsMCwwLDEsMTQuNTcsNC4xOFoiIHN0eWxlPSJmaWxsOiAjMDAwMDAwIi8+JiN4YTsgICAgPHBhdGggZD0iTTE3Ljg3LDguOTRhLjM0LjM0LDAsMCwwLS40Ny0uMTIsMi4wNiwyLjA2LDAsMCwxLS41My4wNyw1LjU1LDUuNTUsMCwwLDEtLjU2LDBoLS41N2E1LjA4LDUuMDgsMCwwLDEtMS4xNywwLC4zLjMsMCwwLDAtLjI0LjU2LDMuNCwzLjQsMCwwLDAsMS4xNS41NGgwczAsLjA3LDAsLjEyYS44Mi44MiwwLDAsMCwwLC4yNywzLDMsMCwwLDAsLjIyLjcxLjM1LjM1LDAsMCwwLC42OSwwLDQsNCwwLDAsMCwuMjItLjY1LjgyLjgyLDAsMCwwLDAtLjI3LjQyLjQyLDAsMCwwLDAtLjE2LDIuOCwyLjgsMCwwLDAsMS4xOS0uNTRBLjM1LjM1LDAsMCwwLDE3Ljg3LDguOTRaIiBzdHlsZT0iZmlsbDogIzAwMDAwMCIvPiYjeGE7ICAgIDxwYXRoIGQ9Ik0xMi4wNywyLjkzYS41Ny41NywwLDAsMC0uMjMtLjEyLDEuNTQsMS41NCwwLDAsMC0uNjctLjA1LjI5LjI5LDAsMCwwLS4zOC4xOS4zLjMsMCwwLDAsLjE5LjM4Yy4xMy4xMi4xNS4yNy4yOC40MWEuNTcuNTcsMCwwLDAsLjE0LjEzLDQuNDgsNC40OCwwLDAsMCwuNzIuMjYuMzQuMzQsMCwwLDAsLjQ4LS4wNi4zNS4zNSwwLDAsMCwwLS40OCw1LjQsNS40LDAsMCwwLS4zLS40OUExLDEsMCwwLDAsMTIuMDcsMi45M1oiIHN0eWxlPSJmaWxsOiAjMDAwMDAwIi8+JiN4YTsgICAgPHBhdGggZD0iTTIwLjMsMy44NWMuMjEtLjA3LjQtLjA3LjYzLS4xNWEuOTQuOTQsMCwwLDAsLjIyLS4xMiwxLjEyLDEuMTIsMCwwLDAsLjItLjE3Yy4xNy0uMTcuMjgtLjMzLjQyLS40OWEuMzQuMzQsMCwwLDAsLjExLS40Ny4zNS4zNSwwLDAsMC0uNDctLjEyLDQuMzYsNC4zNiwwLDAsMC0uNjQuMTcsMS4xMiwxLjEyLDAsMCwwLS4yNS4xMSwxLjI0LDEuMjQsMCwwLDAtLjIyLjE4LDMuMTksMy4xOSwwLDAsMC0uMzcuNTkuMy4zLDAsMCwwLC4zNy40N1oiIHN0eWxlPSJmaWxsOiAjMDAwMDAwIi8+JiN4YTsgICAgPHBhdGggZD0iTTE1LjkzLDEuODNhLjI5LjI5LDAsMCwwLC4yOS4zMS4zLjMsMCwwLDAsLjMxLS4yOSwyLjQsMi40LDAsMCwwLC4yNi0uNTEuNi42LDAsMCwwLDAtLjIzLjU5LjU5LDAsMCwwLDAtLjIzLDIsMiwwLDAsMC0uMjYtLjU1LjMzLjMzLDAsMCwwLS40LS4yNi4zNC4zNCwwLDAsMC0uMjcuNGMwLC4xNC0uMTEuMjctLjE1LjQ2YS42OC42OCwwLDAsMCwwLC40QTIuMzQsMi4zNCwwLDAsMCwxNS45MywxLjgzWiIgc3R5bGU9ImZpbGw6ICMwMDAwMDAiLz4mI3hhOyAgPC9nPjwvZz48L3N2Zz4=;" parent="AAQ9BwyIkS6VjVYWZHyZ-1" vertex="1"><mxGeometry x="666" y="102.12" width="36" height="35.86" as="geometry"/></mxCell><mxCell id="46" value="" style="shape=image;verticalLabelPosition=bottom;labelBackgroundColor=#ffffff;verticalAlign=top;aspect=fixed;imageAspect=0;image=data:image/svg+xml,PHN2ZyB4bWxucz0iaHR0cDovL3d3dy53My5vcmcvMjAwMC9zdmciIHZpZXdCb3g9IjEuNTQ2NTQwNjE3OTQyODEgMCAyNDcuODU0MzA5MDgyMDMxMjUgMjUwLjQzMjY3ODIyMjY1NjI1IiB3aWR0aD0iMjQ3Ljg1NDMwOTA4MjAzMTI1IiBoZWlnaHQ9IjI1MC40MzI2NzgyMjI2NTYyNSI+JiN4YTsgICYjeGE7PGcgdHJhbnNmb3JtPSJtYXRyaXgoMTAuNDE2NjY2NjY2NjY2NjY2LDAsMCwxMC40MTY2NjY2NjY2NjY2NjYsMCwwKSI+PGc+JiN4YTsgICAgPHBhdGggZD0iTTEzLjU2LDE5LjE1Yy0uMjgtLjA3LS41OC0uNDQtLjg1LS44MmEzLjg3LDMuODcsMCwwLDEtLjYtMS4xNWMtLjM2LTEuNDEuMTYtMy4zNC0uNTEtNS4xYTUuMjIsNS4yMiwwLDAsMC0yLjUtMi43QTQsNCwwLDAsMCw2LDlhNC43MSw0LjcxLDAsMCwwLTIuNDksMS44NCw2Ljc3LDYuNzcsMCwwLDAtLjczLDEuNDUsNi4zOSw2LjM5LDAsMCwwLS40MSwxLjU1Yy0uMTQsMS4xMy4wOCwyLjMxLS4xMiwzLjM1YTIuMzYsMi4zNiwwLDAsMS0xLDEuNiwzLjE4LDMuMTgsMCwwLDEtLjQuMjMsMS40LDEuNCwwLDAsMS0uNDEuMTMuMzUuMzUsMCwwLDAtLjI1LjE5LjMxLjMxLDAsMCwwLDAsLjMxLDMuNTQsMy41NCwwLDAsMCwuNjUuNzUsMS41MywxLjUzLDAsMCwwLC42Ny4zNi4yOS4yOSwwLDAsMCwuMzQtLjI0LjMuMywwLDAsMC0uMjQtLjM1LDEuMTUsMS4xNSwwLDAsMS0uNDUtLjMzTDEsMTkuNzJsLjA4LDBhMi44NiwyLjg2LDAsMCwwLC41Mi0uMjdBMy4wNSwzLjA1LDAsMCwwLDMsMTcuNGE2LjksNi45LDAsMCwwLC4xNi0xLjUzLDQuNjQsNC42NCwwLDAsMCwuNiwxLjczLDQuOTEsNC45MSwwLDAsMCwxLjU5LDEuNjdBNy4zNSw3LjM1LDAsMCwwLDIsMjEuMzlhNS4xOCw1LjE4LDAsMCwwLS42Ljg0LDksOSwwLDAsMC0uNjMsMS4zNkEuMy4zLDAsMCwwLDEsMjRhLjMuMywwLDAsMCwuMzktLjE3LDguNjIsOC42MiwwLDAsMSwuNTUtMUE0LjgzLDQuODMsMCwwLDEsMi42MywyMmE2Ljk0LDYuOTQsMCwwLDEsMy4xNi0xLjY0LDUuODEsNS44MSwwLDAsMSwzLjQ3LjE0LDQuNDQsNC40NCwwLDAsMSwxLjgyLDEuMjgsNy43Miw3LjcyLDAsMCwxLDEuMjQsMiwuMzQuMzQsMCwxLDAsLjYzLS4yNCw4LjQ0LDguNDQsMCwwLDAtMS4yLTIuMzIsNS40MSw1LjQxLDAsMCwwLTIuMS0xLjcxYy0uMTYtLjA3LS4zMy0uMS0uNDktLjE2YTMuNTUsMy41NSwwLDAsMCwuNzktLjU2LDUuODEsNS44MSwwLDAsMCwxLjE2LTEuNjhjMC0uMDYuMDUtLjEzLjA4LS4xOWEzLjgyLDMuODIsMCwwLDAsLjExLjUxLDUuMjYsNS4yNiwwLDAsMCwxLDEuNjQsMy4zNSwzLjM1LDAsMCwwLC43LjYzbC0uMS4xNWEuNjUuNjUsMCwwLDEtLjMyLjI3LjMzLjMzLDAsMCwwLS4yLjQ0LjM0LjM0LDAsMCwwLC40My4yLDEuMzksMS4zOSwwLDAsMCwuNTUtLjM2LDMuMDksMy4wOSwwLDAsMCwuNDYtLjcxLjM0LjM0LDAsMCwwLDAtLjMxQS4zNy4zNywwLDAsMCwxMy41NiwxOS4xNVptLTMuMi0yLjQ2QTUsNSwwLDAsMSw5LjI3LDE4YTMuMSwzLjEsMCwwLDEtLjg1LjQ4LDMuNTUsMy41NSwwLDAsMS0xLC4xOSwyLjIxLDIuMjEsMCwwLDEtLjcyLS4wN0EzLDMsMCwwLDEsNiwxOC4zNmEzLjc5LDMuNzksMCwwLDEtMS41LTEuMjMsMy42NSwzLjY1LDAsMCwxLS43LTEuNjZjLjY0LDAsMS4yOS4wOSwxLjk0LjExLjQzLDAsLjg2LDAsMS4yOSwwcy44NiwwLDEuMjktLjA4Yy44Ni0uMDcsMS43MS0uMTcsMi41Ni0uMjdBMy44NSwzLjg1LDAsMCwxLDEwLjM2LDE2LjY5Wk05LjIzLDE0LjQ0YTQuODYsNC44NiwwLDAsMCwwLS41NCw5LjIsOS4yLDAsMCwwLS4yMS0xLC4zLjMsMCwwLDAtLjMyLS4yOC4zLjMsMCwwLDAtLjI4LjMyLDkuMiw5LjIsMCwwLDAtLjA1LDEsMy40NywzLjQ3LDAsMCwwLC4wNi40NUg3Yy0uNDMsMC0uODYsMC0xLjI4LjA2LS44My4wNy0xLjY1LjE3LTIuNDcuMjUsMC0uMjMsMC0uNDcuMDgtLjdhNS44Niw1Ljg2LDAsMCwxLC40LTEuMzEsNi4wNiw2LjA2LDAsMCwxLC42Ni0xLjE5LDMuNjEsMy42MSwwLDAsMSwxLjkxLTEuMzksMi45NCwyLjk0LDAsMCwxLDIuMjcuMjMsNC4yMSw0LjIxLDAsMCwxLDIuMDcsMi4xLDYuMTksNi4xOSwwLDAsMSwuNDMsMloiIHN0eWxlPSJmaWxsOiAjMDAwMDAwIi8+JiN4YTsgICAgPHBhdGggZD0iTTE4LjQ1LDUuMzhhMi44LDIuOCwwLDAsMC0uMTEtMS43MiwyLjI2LDIuMjYsMCwwLDAtMS4yNy0xLjI1LDIuNDMsMi40MywwLDAsMC0xLjcyLDBBMi4zNywyLjM3LDAsMCwwLDE0LDMuNjVhMi4wNiwyLjA2LDAsMCwwLDAsMS43OC4yOS4yOSwwLDAsMCwuNC4xNC4yOS4yOSwwLDAsMCwuMTQtLjM5QTEuMzUsMS4zNSwwLDAsMSwxNC43NCw0YTEuNDMsMS40MywwLDAsMSwxLjg5LS41NSwxLjIsMS4yLDAsMCwxLC42NC42MywxLjY4LDEuNjgsMCwwLDEsLjE1LDEsMS4yNywxLjI3LDAsMCwxLS41NS44M2MtLjE5LjEzLS41My4yNC0uNzkuMzlhMS4zMywxLjMzLDAsMCwwLS40NC4zNSwxLDEsMCwwLDAtLjE5LjQxLDEuNzEsMS43MSwwLDAsMCwwLC41NS4zMy4zMywwLDAsMCwuMzMuMzUuMzUuMzUsMCwwLDAsLjM1LS4zNCwxLjgxLDEuODEsMCwwLDEsLjA1LS4zMS40Ni40NiwwLDAsMSwuMS0uMThsMS4xMS0uNDRBMi4yMSwyLjIxLDAsMCwwLDE4LjQ1LDUuMzhaIiBzdHlsZT0iZmlsbDogIzAwMDAwMCIvPiYjeGE7ICAgIDxwYXRoIGQ9Ik0xNS42MSw4LjhhLjkuOSwwLDAsMC0uNzguNTkuNzMuNzMsMCwwLDAsLjY1Ljg3LjkzLjkzLDAsMCwwLC44Ny0uNjFBLjc3Ljc3LDAsMCwwLDE1LjYxLDguOFoiIHN0eWxlPSJmaWxsOiAjMDAwMDAwIi8+JiN4YTsgICAgPHBhdGggZD0iTTIzLjg1LDUuMjhjMC0uODUsMC0yLjk0LS4wNS0zLjgzYTEuMjksMS4yOSwwLDAsMC0uMjktLjgsNS42Myw1LjYzLDAsMCwwLTItLjQ1QzIwLjMuMDgsMTguNjcsMCwxNy41LDAsMTcsMCwxMy4xNCwwLDEwLjg1LjE4QTQuNTgsNC41OCwwLDAsMCw5LC41Ny42NS42NSwwLDAsMCw4LjguODlhNy4xOCw3LjE4LDAsMCwwLS4xNiwxLjNDOC41NSw0LDguNTgsNi45NCw4LjU5LDcuNjRhLjM0LjM0LDAsMSwwLC42OCwwYzAtLjU0LDAtMi40MS4xMS00LDAtLjg1LjA5LTEuNjMuMTYtMi4xMmEyLjg0LDIuODQsMCwwLDEsLjA2LS4yOSwzLjI1LDMuMjUsMCwwLDEsLjM2LDBBMjMuOTQsMjMuOTQsMCwwLDEsMTIuNTQsMWMyLjE0LDAsNC41OSwwLDQuOTQsMCwxLDAsMi4yNy4xMSwzLjM4LjIxYTE2LjI3LDE2LjI3LDAsMCwxLDEuNzQuMjRsLjA2LDB2MGMuMDguODcuMDUsMi45LDAsMy43MywwLC41LjA4LDIuMjcuMDgsMy44MUExNSwxNSwwLDAsMSwyMi43LDExYS41Ni41NiwwLDAsMSwwLC4xMmMtLjE0LDAtLjQ0LjE0LS42OS4xNWExMC43OCwxMC43OCwwLDAsMS0xLjA5LDBjLTEuMDUtLjA2LTIuMTgtLjE1LTIuNzEtLjEyYS44OC44OCwwLDAsMC0uNi4yMmMtLjI0LjI4LS40OS45NS0uOTMsMS42N0E1LjA2LDUuMDYsMCwwLDEsMTYsMTRhMi4yNywyLjI3LDAsMCwxLTEuNjQuNzNjLS4wOC0uNTYsMC0yLjEsMC0yLjc2YTEuMzQsMS4zNCwwLDAsMC0uMDctLjQyLjM1LjM1LDAsMCwwLS4yNC0uMTkuMjkuMjksMCwwLDAtLjM1LjI1czAsMy40My4wNiwzLjUzYS40Mi40MiwwLDAsMCwuMzIuMjUsMi4yNSwyLjI1LDAsMCwwLDEuMDUsMCwzLDMsMCwwLDAsMS40NC0uODEsNi43OSw2Ljc5LDAsMCwwLC44Mi0xYy4zOC0uNTkuNjEtMS4xNC44Mi0xLjQ0aC4wNWMuNSwwLDEuNi4xMiwyLjYuMjFhMTEuNTQsMTEuNTQsMCwwLDAsMS42NywwLDEuNjcsMS42NywwLDAsMCwxLS4zNSwzLjI5LDMuMjksMCwwLDAsLjM5LTEuNTZDMjQsOC43MywyMy44NCw1Ljk0LDIzLjg1LDUuMjhaIiBzdHlsZT0iZmlsbDogIzMzOTdGQSIvPiYjeGE7ICA8L2c+PC9nPjwvc3ZnPg==;" parent="AAQ9BwyIkS6VjVYWZHyZ-1" vertex="1"><mxGeometry x="267" y="57.81" width="36" height="36.29" as="geometry"/></mxCell><mxCell id="48" value="" style="shape=image;verticalLabelPosition=bottom;labelBackgroundColor=#ffffff;verticalAlign=top;aspect=fixed;imageAspect=0;image=data:image/svg+xml,PHN2ZyB4bWxucz0iaHR0cDovL3d3dy53My5vcmcvMjAwMC9zdmciIHZpZXdCb3g9Ii0wLjM3MjYxNTMwNzU2OTUwMzggMCAyNTAuNjUwNDA1ODgzNzg5MDYgMjUwLjQ1ODgzMTc4NzEwOTM4IiB3aWR0aD0iMjUwLjY1MDQwNTg4Mzc4OTA2IiBoZWlnaHQ9IjI1MC40NTg4MzE3ODcxMDkzOCI+JiN4YTsgICYjeGE7PGcgdHJhbnNmb3JtPSJtYXRyaXgoMTAuNDE2NjY2NjY2NjY2NjY2LDAsMCwxMC40MTY2NjY2NjY2NjY2NjYsMCwwKSI+PGc+JiN4YTsgICAgPHBhdGggZD0iTTExLjcyLDIxLjA3YTUuNjUsNS42NSwwLDAsMC0yLjI0LTEuNzYsNi4zNCw2LjM0LDAsMCwwLS44MS0uMjYsMy43NCwzLjc0LDAsMCwwLDEuMTEtLjg2LDMuODMsMy44MywwLDAsMCwxLTIuMTlsLjI4LjExYS4zNS4zNSwwLDAsMCwuNDUtLjE4LjM0LjM0LDAsMCwwLDAtLjI4LjE2LjE2LDAsMCwwLC4wNy0uMDksNSw1LDAsMCwwLC44MS0yLjgxQTMuNDMsMy40MywwLDAsMCwxMiwxMS40M2EyLjkyLDIuOTIsMCwwLDAtLjU0LS43NiwzLjQzLDMuNDMsMCwwLDAtMi41NS0uOTJsLS4wNi0uMDdhNCw0LDAsMCwwLTQtLjM1LDUuNjIsNS42MiwwLDAsMC0xLjQ5Ljk1QTYuNjYsNi42NiwwLDAsMCwyLjE4LDExLjZhNS41MSw1LjUxLDAsMCwwLTEsMy44Ni4zMy4zMywwLDAsMC0uMDYuMTkuMzEuMzEsMCwwLDAsLjMzLjI4aC4zOWEzLjI1LDMuMjUsMCwwLDAsLjA5LjgxLDIuOTIsMi45MiwwLDAsMCwuMzcuOTIsNCw0LDAsMCwwLDIsMS42NCw3Ljg3LDcuODcsMCwwLDAtMywyLDYuMDksNi4wOSwwLDAsMC0uNzgsMS4xQTkuMTgsOS4xOCwwLDAsMCwwLDIzLjU3LjMuMywwLDAsMCwuMTgsMjRhLjMuMywwLDAsMCwuNC0uMTUsOCw4LDAsMCwxLC41OS0xLDUuMjgsNS4yOCwwLDAsMSwuNzYtLjg5LDcuNiw3LjYsMCwwLDEsMy40Mi0xLjcyLDYuNSw2LjUsMCwwLDEsMy43NS4xNSw0LjY5LDQuNjksMCwwLDEsMiwxLjMzLDcuOCw3LjgsMCwwLDEsMS4zNCwyLjExLjM1LjM1LDAsMCwwLC40NS4xOS4zNC4zNCwwLDAsMCwuMTktLjQ0QTguNTEsOC41MSwwLDAsMCwxMS43MiwyMS4wN1pNMy4wNiwxMi4yM2E4Ljc3LDguNzcsMCwwLDEsMS0xLjA4LDYuNzksNi43OSwwLDAsMSwxLjIxLS44MkEzLjU2LDMuNTYsMCwwLDEsNy45MiwxMGEuMzIuMzIsMCwwLDAtLjA3LjIzLjM0LjM0LDAsMCwwLC4zNy4zMUEyLjY3LDIuNjcsMCwwLDEsMTEsMTEuOTRhMy40LDMuNCwwLDAsMSwuMjguOTJBNC44NCw0Ljg0LDAsMCwxLDExLDE1LjI5YTAsMCwwLDAsMSwwLDAsOC45LDguOSwwLDAsMS0xLS42LDQuMjksNC4yOSwwLDAsMS0xLTFjLS4xNy0uMjQtLjYtMS0uNzktMS4zNUEuNzUuNzUsMCwwLDAsNy4yOCwxMmExLDEsMCwwLDAtLjI2LjIzYy0uMjMuMjUtLjcxLjg3LS45NCwxLjA4YTcuMjgsNy4yOCwwLDAsMS0xLjIxLjkyLDguMzcsOC4zNywwLDAsMS0xLjQuNzEsNC4xMiw0LjEyLDAsMCwxLS43Ni4yMmMtLjI3LjA1LS41NC4wOC0uODEuMTFBNC45NCw0Ljk0LDAsMCwxLDMuMDYsMTIuMjNaTTMsMTcuMThhMi4wOCwyLjA4LDAsMCwxLS4zNi0uNjUsMi42NywyLjY3LDAsMCwxLS4xNS0uNjJoLjMyYTUuMTQsNS4xNCwwLDAsMCwuOTMtLjE1LDguMjksOC4yOSwwLDAsMCwxLjY0LS42LDcuMDgsNy4wOCwwLDAsMCwxLjQ4LTFjLjE2LS4xNS40MS0uNDYuNjQtLjc0LjI0LjM1LjUxLjczLjY0Ljg5YTUuNDksNS40OSwwLDAsMCwxLjA2LjkzLDguNzYsOC43NiwwLDAsMCwuODUuNDcsMi45MywyLjkzLDAsMCwxLS45MywxLjgzLDMuMiwzLjIsMCwwLDEtMiwuODQsNS41NSw1LjU1LDAsMCwxLTIuNzItLjJBMy4yNiwzLjI2LDAsMCwxLDMsMTcuMThaIiBzdHlsZT0iZmlsbDogIzAwMDAwMCIvPiYjeGE7ICAgIDxwYXRoIGQ9Ik0xOC41NSw1LjRhMi44LDIuOCwwLDAsMC0uMTEtMS43MiwyLjMxLDIuMzEsMCwwLDAtMS4yNy0xLjI2LDIuNDgsMi40OCwwLDAsMC0xLjcyLDAsMi4zOSwyLjM5LDAsMCwwLTEuMzMsMS4yOCwyLjA2LDIuMDYsMCwwLDAsMCwxLjc4LjMxLjMxLDAsMCwwLC40LjE1LjMuMywwLDAsMCwuMTUtLjRBMS4zNSwxLjM1LDAsMCwxLDE0Ljg0LDRhMS40MywxLjQzLDAsMCwxLC45MS0uNjgsMS40OSwxLjQ5LDAsMCwxLDEsLjEzLDEuMTgsMS4xOCwwLDAsMSwuNjUuNjMsMS42OCwxLjY4LDAsMCwxLC4xNSwxQTEuMjgsMS4yOCwwLDAsMSwxNyw2Yy0uMTkuMTMtLjUzLjI0LS44LjM5YTEuNjEsMS42MSwwLDAsMC0uNDQuMzUsMS4yOCwxLjI4LDAsMCwwLS4xOS40MSwyLjY1LDIuNjUsMCwwLDAsMCwuNTYuMzUuMzUsMCwwLDAsLjY5LDAsMS42NSwxLjY1LDAsMCwxLDAtLjMxLjY5LjY5LDAsMCwxLC4xLS4xOWwxLjExLS40NEEyLjIyLDIuMjIsMCwwLDAsMTguNTUsNS40WiIgc3R5bGU9ImZpbGw6ICMwMDAwMDAiLz4mI3hhOyAgICA8cGF0aCBkPSJNMTUuNyw4LjgyYTEsMSwwLDAsMC0uNzguNi43My43MywwLDAsMCwuNjYuODcsMSwxLDAsMCwwLC44Ny0uNjFBLjguOCwwLDAsMCwxNS43LDguODJaIiBzdHlsZT0iZmlsbDogIzAwMDAwMCIvPiYjeGE7ICAgIDxwYXRoIGQ9Ik0yNCw1LjMxYzAtLjg2LDAtMi45NS0uMDUtMy44NWExLjMyLDEuMzIsMCwwLDAtLjI5LS44LDUuNTYsNS41NiwwLDAsMC0yLS40NEMyMC40MS4wOSwxOC43NiwwLDE3LjU5LDBjLS40NiwwLTQuMzYsMC02LjY1LjE4QTQuNzEsNC43MSwwLDAsMCw5LjA3LjU4Ljc3Ljc3LDAsMCwwLDguODguOWE2LjY5LDYuNjksMCwwLDAtLjE1LDEuMzFDOC42Myw0LDguNjcsNyw4LjY3LDcuNjZBLjM2LjM2LDAsMCwwLDksOGEuMzUuMzUsMCwwLDAsLjM0LS4zNWMwLS41MywwLTIuNDEuMS00LjA2LDAtLjg1LjA5LTEuNjMuMTYtMi4xMiwwLS4xMS4wNS0uMjIuMDYtLjI5cy4yNCwwLC4zNiwwYy42MS0uMDgsMS41Ni0uMTEsMi41OS0uMTMsMi4xNCwwLDQuNiwwLDQuOTUuMDUsMSwwLDIuMjcuMSwzLjM4LjIxLjcxLjA3LDEuMzQuMTUsMS43NC4yM2wuMDYsMHYwYy4wOC44NywwLDIuOSwwLDMuNzMsMCwuNS4wNywyLjI3LjA3LDMuODJhMTcuNDEsMTcuNDEsMCwwLDEtLjA3LDIsLjU2LjU2LDAsMCwxLDAsLjEyYy0uMTUsMC0uNDUuMTUtLjcuMTVhMTAuODcsMTAuODcsMCwwLDEtMS4wOSwwYy0xLjA1LS4wNi0yLjE4LS4xNS0yLjcxLS4xMmEuODUuODUsMCwwLDAtLjYuMjJjLS4yNS4yOS0uNDkuOTUtLjkzLDEuNjhhNi4xMyw2LjEzLDAsMCwxLS42OS45MiwyLjE5LDIuMTksMCwwLDEtMS42NC43MmMtLjA3LS41NiwwLTIuMDksMC0yLjc2YTEuMzQsMS4zNCwwLDAsMC0uMDctLjQyLjMzLjMzLDAsMCwwLS4yNC0uMTkuMy4zLDAsMCwwLS4zNS4yNXMwLDMuNDQuMDYsMy41NGEuNDkuNDksMCwwLDAsLjMyLjI1LDIuMjUsMi4yNSwwLDAsMCwxLjA1LDAsMy4xMiwzLjEyLDAsMCwwLDEuNDQtLjgxLDYuMjcsNi4yNywwLDAsMCwuODItMWMuMzktLjU5LjYyLTEuMTQuODMtMS40NGgwYy41LDAsMS42LjEyLDIuNi4yMWExMS42NCwxMS42NCwwLDAsMCwxLjY4LDAsMS42OCwxLjY4LDAsMCwwLDEtLjM0QTMuMywzLjMsMCwwLDAsMjQsMTAuNDNDMjQuMDYsOC43NSwyNCw2LDI0LDUuMzFaIiBzdHlsZT0iZmlsbDogIzMzOTdGQSIvPiYjeGE7ICA8L2c+PC9nPjwvc3ZnPg==;" parent="AAQ9BwyIkS6VjVYWZHyZ-1" vertex="1"><mxGeometry x="488" y="42.83" width="36" height="35.86" as="geometry"/></mxCell><mxCell id="49" value="" style="shape=image;verticalLabelPosition=bottom;labelBackgroundColor=#ffffff;verticalAlign=top;aspect=fixed;imageAspect=0;image=data:image/svg+xml,PHN2ZyB4bWxucz0iaHR0cDovL3d3dy53My5vcmcvMjAwMC9zdmciIHZpZXdCb3g9Ii0wLjM3MjYxNTMwNzU2OTUwMzggMCAyNTAuNjUwNDA1ODgzNzg5MDYgMjUwLjQ1ODgzMTc4NzEwOTM4IiB3aWR0aD0iMjUwLjY1MDQwNTg4Mzc4OTA2IiBoZWlnaHQ9IjI1MC40NTg4MzE3ODcxMDkzOCI+JiN4YTsgICYjeGE7PGcgdHJhbnNmb3JtPSJtYXRyaXgoMTAuNDE2NjY2NjY2NjY2NjY2LDAsMCwxMC40MTY2NjY2NjY2NjY2NjYsMCwwKSI+PGc+JiN4YTsgICAgPHBhdGggZD0iTTExLjcyLDIxLjA3YTUuNjUsNS42NSwwLDAsMC0yLjI0LTEuNzYsNi4zNCw2LjM0LDAsMCwwLS44MS0uMjYsMy43NCwzLjc0LDAsMCwwLDEuMTEtLjg2LDMuODMsMy44MywwLDAsMCwxLTIuMTlsLjI4LjExYS4zNS4zNSwwLDAsMCwuNDUtLjE4LjM0LjM0LDAsMCwwLDAtLjI4LjE2LjE2LDAsMCwwLC4wNy0uMDksNSw1LDAsMCwwLC44MS0yLjgxQTMuNDMsMy40MywwLDAsMCwxMiwxMS40M2EyLjkyLDIuOTIsMCwwLDAtLjU0LS43NiwzLjQzLDMuNDMsMCwwLDAtMi41NS0uOTJsLS4wNi0uMDdhNCw0LDAsMCwwLTQtLjM1LDUuNjIsNS42MiwwLDAsMC0xLjQ5Ljk1QTYuNjYsNi42NiwwLDAsMCwyLjE4LDExLjZhNS41MSw1LjUxLDAsMCwwLTEsMy44Ni4zMy4zMywwLDAsMC0uMDYuMTkuMzEuMzEsMCwwLDAsLjMzLjI4aC4zOWEzLjI1LDMuMjUsMCwwLDAsLjA5LjgxLDIuOTIsMi45MiwwLDAsMCwuMzcuOTIsNCw0LDAsMCwwLDIsMS42NCw3Ljg3LDcuODcsMCwwLDAtMywyLDYuMDksNi4wOSwwLDAsMC0uNzgsMS4xQTkuMTgsOS4xOCwwLDAsMCwwLDIzLjU3LjMuMywwLDAsMCwuMTgsMjRhLjMuMywwLDAsMCwuNC0uMTUsOCw4LDAsMCwxLC41OS0xLDUuMjgsNS4yOCwwLDAsMSwuNzYtLjg5LDcuNiw3LjYsMCwwLDEsMy40Mi0xLjcyLDYuNSw2LjUsMCwwLDEsMy43NS4xNSw0LjY5LDQuNjksMCwwLDEsMiwxLjMzLDcuOCw3LjgsMCwwLDEsMS4zNCwyLjExLjM1LjM1LDAsMCwwLC40NS4xOS4zNC4zNCwwLDAsMCwuMTktLjQ0QTguNTEsOC41MSwwLDAsMCwxMS43MiwyMS4wN1pNMy4wNiwxMi4yM2E4Ljc3LDguNzcsMCwwLDEsMS0xLjA4LDYuNzksNi43OSwwLDAsMSwxLjIxLS44MkEzLjU2LDMuNTYsMCwwLDEsNy45MiwxMGEuMzIuMzIsMCwwLDAtLjA3LjIzLjM0LjM0LDAsMCwwLC4zNy4zMUEyLjY3LDIuNjcsMCwwLDEsMTEsMTEuOTRhMy40LDMuNCwwLDAsMSwuMjguOTJBNC44NCw0Ljg0LDAsMCwxLDExLDE1LjI5YTAsMCwwLDAsMSwwLDAsOC45LDguOSwwLDAsMS0xLS42LDQuMjksNC4yOSwwLDAsMS0xLTFjLS4xNy0uMjQtLjYtMS0uNzktMS4zNUEuNzUuNzUsMCwwLDAsNy4yOCwxMmExLDEsMCwwLDAtLjI2LjIzYy0uMjMuMjUtLjcxLjg3LS45NCwxLjA4YTcuMjgsNy4yOCwwLDAsMS0xLjIxLjkyLDguMzcsOC4zNywwLDAsMS0xLjQuNzEsNC4xMiw0LjEyLDAsMCwxLS43Ni4yMmMtLjI3LjA1LS41NC4wOC0uODEuMTFBNC45NCw0Ljk0LDAsMCwxLDMuMDYsMTIuMjNaTTMsMTcuMThhMi4wOCwyLjA4LDAsMCwxLS4zNi0uNjUsMi42NywyLjY3LDAsMCwxLS4xNS0uNjJoLjMyYTUuMTQsNS4xNCwwLDAsMCwuOTMtLjE1LDguMjksOC4yOSwwLDAsMCwxLjY0LS42LDcuMDgsNy4wOCwwLDAsMCwxLjQ4LTFjLjE2LS4xNS40MS0uNDYuNjQtLjc0LjI0LjM1LjUxLjczLjY0Ljg5YTUuNDksNS40OSwwLDAsMCwxLjA2LjkzLDguNzYsOC43NiwwLDAsMCwuODUuNDcsMi45MywyLjkzLDAsMCwxLS45MywxLjgzLDMuMiwzLjIsMCwwLDEtMiwuODQsNS41NSw1LjU1LDAsMCwxLTIuNzItLjJBMy4yNiwzLjI2LDAsMCwxLDMsMTcuMThaIiBzdHlsZT0iZmlsbDogIzAwMDAwMCIvPiYjeGE7ICAgIDxwYXRoIGQ9Ik0xOC41NSw1LjRhMi44LDIuOCwwLDAsMC0uMTEtMS43MiwyLjMxLDIuMzEsMCwwLDAtMS4yNy0xLjI2LDIuNDgsMi40OCwwLDAsMC0xLjcyLDAsMi4zOSwyLjM5LDAsMCwwLTEuMzMsMS4yOCwyLjA2LDIuMDYsMCwwLDAsMCwxLjc4LjMxLjMxLDAsMCwwLC40LjE1LjMuMywwLDAsMCwuMTUtLjRBMS4zNSwxLjM1LDAsMCwxLDE0Ljg0LDRhMS40MywxLjQzLDAsMCwxLC45MS0uNjgsMS40OSwxLjQ5LDAsMCwxLDEsLjEzLDEuMTgsMS4xOCwwLDAsMSwuNjUuNjMsMS42OCwxLjY4LDAsMCwxLC4xNSwxQTEuMjgsMS4yOCwwLDAsMSwxNyw2Yy0uMTkuMTMtLjUzLjI0LS44LjM5YTEuNjEsMS42MSwwLDAsMC0uNDQuMzUsMS4yOCwxLjI4LDAsMCwwLS4xOS40MSwyLjY1LDIuNjUsMCwwLDAsMCwuNTYuMzUuMzUsMCwwLDAsLjY5LDAsMS42NSwxLjY1LDAsMCwxLDAtLjMxLjY5LjY5LDAsMCwxLC4xLS4xOWwxLjExLS40NEEyLjIyLDIuMjIsMCwwLDAsMTguNTUsNS40WiIgc3R5bGU9ImZpbGw6ICMwMDAwMDAiLz4mI3hhOyAgICA8cGF0aCBkPSJNMTUuNyw4LjgyYTEsMSwwLDAsMC0uNzguNi43My43MywwLDAsMCwuNjYuODcsMSwxLDAsMCwwLC44Ny0uNjFBLjguOCwwLDAsMCwxNS43LDguODJaIiBzdHlsZT0iZmlsbDogIzAwMDAwMCIvPiYjeGE7ICAgIDxwYXRoIGQ9Ik0yNCw1LjMxYzAtLjg2LDAtMi45NS0uMDUtMy44NWExLjMyLDEuMzIsMCwwLDAtLjI5LS44LDUuNTYsNS41NiwwLDAsMC0yLS40NEMyMC40MS4wOSwxOC43NiwwLDE3LjU5LDBjLS40NiwwLTQuMzYsMC02LjY1LjE4QTQuNzEsNC43MSwwLDAsMCw5LjA3LjU4Ljc3Ljc3LDAsMCwwLDguODguOWE2LjY5LDYuNjksMCwwLDAtLjE1LDEuMzFDOC42Myw0LDguNjcsNyw4LjY3LDcuNjZBLjM2LjM2LDAsMCwwLDksOGEuMzUuMzUsMCwwLDAsLjM0LS4zNWMwLS41MywwLTIuNDEuMS00LjA2LDAtLjg1LjA5LTEuNjMuMTYtMi4xMiwwLS4xMS4wNS0uMjIuMDYtLjI5cy4yNCwwLC4zNiwwYy42MS0uMDgsMS41Ni0uMTEsMi41OS0uMTMsMi4xNCwwLDQuNiwwLDQuOTUuMDUsMSwwLDIuMjcuMSwzLjM4LjIxLjcxLjA3LDEuMzQuMTUsMS43NC4yM2wuMDYsMHYwYy4wOC44NywwLDIuOSwwLDMuNzMsMCwuNS4wNywyLjI3LjA3LDMuODJhMTcuNDEsMTcuNDEsMCwwLDEtLjA3LDIsLjU2LjU2LDAsMCwxLDAsLjEyYy0uMTUsMC0uNDUuMTUtLjcuMTVhMTAuODcsMTAuODcsMCwwLDEtMS4wOSwwYy0xLjA1LS4wNi0yLjE4LS4xNS0yLjcxLS4xMmEuODUuODUsMCwwLDAtLjYuMjJjLS4yNS4yOS0uNDkuOTUtLjkzLDEuNjhhNi4xMyw2LjEzLDAsMCwxLS42OS45MiwyLjE5LDIuMTksMCwwLDEtMS42NC43MmMtLjA3LS41NiwwLTIuMDksMC0yLjc2YTEuMzQsMS4zNCwwLDAsMC0uMDctLjQyLjMzLjMzLDAsMCwwLS4yNC0uMTkuMy4zLDAsMCwwLS4zNS4yNXMwLDMuNDQuMDYsMy41NGEuNDkuNDksMCwwLDAsLjMyLjI1LDIuMjUsMi4yNSwwLDAsMCwxLjA1LDAsMy4xMiwzLjEyLDAsMCwwLDEuNDQtLjgxLDYuMjcsNi4yNywwLDAsMCwuODItMWMuMzktLjU5LjYyLTEuMTQuODMtMS40NGgwYy41LDAsMS42LjEyLDIuNi4yMWExMS42NCwxMS42NCwwLDAsMCwxLjY4LDAsMS42OCwxLjY4LDAsMCwwLDEtLjM0QTMuMywzLjMsMCwwLDAsMjQsMTAuNDNDMjQuMDYsOC43NSwyNCw2LDI0LDUuMzFaIiBzdHlsZT0iZmlsbDogIzMzOTdGQSIvPiYjeGE7ICA8L2c+PC9nPjwvc3ZnPg==;" parent="AAQ9BwyIkS6VjVYWZHyZ-1" vertex="1"><mxGeometry x="125" y="197.07" width="36" height="35.86" as="geometry"/></mxCell><mxCell id="50" value="" style="shape=image;verticalLabelPosition=bottom;labelBackgroundColor=#ffffff;verticalAlign=top;aspect=fixed;imageAspect=0;image=data:image/svg+xml,PHN2ZyB4bWxucz0iaHR0cDovL3d3dy53My5vcmcvMjAwMC9zdmciIHZpZXdCb3g9IjEuNTQ2NTQwNjE3OTQyODEgMCAyNDcuODU0MzA5MDgyMDMxMjUgMjUwLjQzMjY3ODIyMjY1NjI1IiB3aWR0aD0iMjQ3Ljg1NDMwOTA4MjAzMTI1IiBoZWlnaHQ9IjI1MC40MzI2NzgyMjI2NTYyNSI+JiN4YTsgICYjeGE7PGcgdHJhbnNmb3JtPSJtYXRyaXgoMTAuNDE2NjY2NjY2NjY2NjY2LDAsMCwxMC40MTY2NjY2NjY2NjY2NjYsMCwwKSI+PGc+JiN4YTsgICAgPHBhdGggZD0iTTEzLjU2LDE5LjE1Yy0uMjgtLjA3LS41OC0uNDQtLjg1LS44MmEzLjg3LDMuODcsMCwwLDEtLjYtMS4xNWMtLjM2LTEuNDEuMTYtMy4zNC0uNTEtNS4xYTUuMjIsNS4yMiwwLDAsMC0yLjUtMi43QTQsNCwwLDAsMCw2LDlhNC43MSw0LjcxLDAsMCwwLTIuNDksMS44NCw2Ljc3LDYuNzcsMCwwLDAtLjczLDEuNDUsNi4zOSw2LjM5LDAsMCwwLS40MSwxLjU1Yy0uMTQsMS4xMy4wOCwyLjMxLS4xMiwzLjM1YTIuMzYsMi4zNiwwLDAsMS0xLDEuNiwzLjE4LDMuMTgsMCwwLDEtLjQuMjMsMS40LDEuNCwwLDAsMS0uNDEuMTMuMzUuMzUsMCwwLDAtLjI1LjE5LjMxLjMxLDAsMCwwLDAsLjMxLDMuNTQsMy41NCwwLDAsMCwuNjUuNzUsMS41MywxLjUzLDAsMCwwLC42Ny4zNi4yOS4yOSwwLDAsMCwuMzQtLjI0LjMuMywwLDAsMC0uMjQtLjM1LDEuMTUsMS4xNSwwLDAsMS0uNDUtLjMzTDEsMTkuNzJsLjA4LDBhMi44NiwyLjg2LDAsMCwwLC41Mi0uMjdBMy4wNSwzLjA1LDAsMCwwLDMsMTcuNGE2LjksNi45LDAsMCwwLC4xNi0xLjUzLDQuNjQsNC42NCwwLDAsMCwuNiwxLjczLDQuOTEsNC45MSwwLDAsMCwxLjU5LDEuNjdBNy4zNSw3LjM1LDAsMCwwLDIsMjEuMzlhNS4xOCw1LjE4LDAsMCwwLS42Ljg0LDksOSwwLDAsMC0uNjMsMS4zNkEuMy4zLDAsMCwwLDEsMjRhLjMuMywwLDAsMCwuMzktLjE3LDguNjIsOC42MiwwLDAsMSwuNTUtMUE0LjgzLDQuODMsMCwwLDEsMi42MywyMmE2Ljk0LDYuOTQsMCwwLDEsMy4xNi0xLjY0LDUuODEsNS44MSwwLDAsMSwzLjQ3LjE0LDQuNDQsNC40NCwwLDAsMSwxLjgyLDEuMjgsNy43Miw3LjcyLDAsMCwxLDEuMjQsMiwuMzQuMzQsMCwxLDAsLjYzLS4yNCw4LjQ0LDguNDQsMCwwLDAtMS4yLTIuMzIsNS40MSw1LjQxLDAsMCwwLTIuMS0xLjcxYy0uMTYtLjA3LS4zMy0uMS0uNDktLjE2YTMuNTUsMy41NSwwLDAsMCwuNzktLjU2LDUuODEsNS44MSwwLDAsMCwxLjE2LTEuNjhjMC0uMDYuMDUtLjEzLjA4LS4xOWEzLjgyLDMuODIsMCwwLDAsLjExLjUxLDUuMjYsNS4yNiwwLDAsMCwxLDEuNjQsMy4zNSwzLjM1LDAsMCwwLC43LjYzbC0uMS4xNWEuNjUuNjUsMCwwLDEtLjMyLjI3LjMzLjMzLDAsMCwwLS4yLjQ0LjM0LjM0LDAsMCwwLC40My4yLDEuMzksMS4zOSwwLDAsMCwuNTUtLjM2LDMuMDksMy4wOSwwLDAsMCwuNDYtLjcxLjM0LjM0LDAsMCwwLDAtLjMxQS4zNy4zNywwLDAsMCwxMy41NiwxOS4xNVptLTMuMi0yLjQ2QTUsNSwwLDAsMSw5LjI3LDE4YTMuMSwzLjEsMCwwLDEtLjg1LjQ4LDMuNTUsMy41NSwwLDAsMS0xLC4xOSwyLjIxLDIuMjEsMCwwLDEtLjcyLS4wN0EzLDMsMCwwLDEsNiwxOC4zNmEzLjc5LDMuNzksMCwwLDEtMS41LTEuMjMsMy42NSwzLjY1LDAsMCwxLS43LTEuNjZjLjY0LDAsMS4yOS4wOSwxLjk0LjExLjQzLDAsLjg2LDAsMS4yOSwwcy44NiwwLDEuMjktLjA4Yy44Ni0uMDcsMS43MS0uMTcsMi41Ni0uMjdBMy44NSwzLjg1LDAsMCwxLDEwLjM2LDE2LjY5Wk05LjIzLDE0LjQ0YTQuODYsNC44NiwwLDAsMCwwLS41NCw5LjIsOS4yLDAsMCwwLS4yMS0xLC4zLjMsMCwwLDAtLjMyLS4yOC4zLjMsMCwwLDAtLjI4LjMyLDkuMiw5LjIsMCwwLDAtLjA1LDEsMy40NywzLjQ3LDAsMCwwLC4wNi40NUg3Yy0uNDMsMC0uODYsMC0xLjI4LjA2LS44My4wNy0xLjY1LjE3LTIuNDcuMjUsMC0uMjMsMC0uNDcuMDgtLjdhNS44Niw1Ljg2LDAsMCwxLC40LTEuMzEsNi4wNiw2LjA2LDAsMCwxLC42Ni0xLjE5LDMuNjEsMy42MSwwLDAsMSwxLjkxLTEuMzksMi45NCwyLjk0LDAsMCwxLDIuMjcuMjMsNC4yMSw0LjIxLDAsMCwxLDIuMDcsMi4xLDYuMTksNi4xOSwwLDAsMSwuNDMsMloiIHN0eWxlPSJmaWxsOiAjMDAwMDAwIi8+JiN4YTsgICAgPHBhdGggZD0iTTE4LjQ1LDUuMzhhMi44LDIuOCwwLDAsMC0uMTEtMS43MiwyLjI2LDIuMjYsMCwwLDAtMS4yNy0xLjI1LDIuNDMsMi40MywwLDAsMC0xLjcyLDBBMi4zNywyLjM3LDAsMCwwLDE0LDMuNjVhMi4wNiwyLjA2LDAsMCwwLDAsMS43OC4yOS4yOSwwLDAsMCwuNC4xNC4yOS4yOSwwLDAsMCwuMTQtLjM5QTEuMzUsMS4zNSwwLDAsMSwxNC43NCw0YTEuNDMsMS40MywwLDAsMSwxLjg5LS41NSwxLjIsMS4yLDAsMCwxLC42NC42MywxLjY4LDEuNjgsMCwwLDEsLjE1LDEsMS4yNywxLjI3LDAsMCwxLS41NS44M2MtLjE5LjEzLS41My4yNC0uNzkuMzlhMS4zMywxLjMzLDAsMCwwLS40NC4zNSwxLDEsMCwwLDAtLjE5LjQxLDEuNzEsMS43MSwwLDAsMCwwLC41NS4zMy4zMywwLDAsMCwuMzMuMzUuMzUuMzUsMCwwLDAsLjM1LS4zNCwxLjgxLDEuODEsMCwwLDEsLjA1LS4zMS40Ni40NiwwLDAsMSwuMS0uMThsMS4xMS0uNDRBMi4yMSwyLjIxLDAsMCwwLDE4LjQ1LDUuMzhaIiBzdHlsZT0iZmlsbDogIzAwMDAwMCIvPiYjeGE7ICAgIDxwYXRoIGQ9Ik0xNS42MSw4LjhhLjkuOSwwLDAsMC0uNzguNTkuNzMuNzMsMCwwLDAsLjY1Ljg3LjkzLjkzLDAsMCwwLC44Ny0uNjFBLjc3Ljc3LDAsMCwwLDE1LjYxLDguOFoiIHN0eWxlPSJmaWxsOiAjMDAwMDAwIi8+JiN4YTsgICAgPHBhdGggZD0iTTIzLjg1LDUuMjhjMC0uODUsMC0yLjk0LS4wNS0zLjgzYTEuMjksMS4yOSwwLDAsMC0uMjktLjgsNS42Myw1LjYzLDAsMCwwLTItLjQ1QzIwLjMuMDgsMTguNjcsMCwxNy41LDAsMTcsMCwxMy4xNCwwLDEwLjg1LjE4QTQuNTgsNC41OCwwLDAsMCw5LC41Ny42NS42NSwwLDAsMCw4LjguODlhNy4xOCw3LjE4LDAsMCwwLS4xNiwxLjNDOC41NSw0LDguNTgsNi45NCw4LjU5LDcuNjRhLjM0LjM0LDAsMSwwLC42OCwwYzAtLjU0LDAtMi40MS4xMS00LDAtLjg1LjA5LTEuNjMuMTYtMi4xMmEyLjg0LDIuODQsMCwwLDEsLjA2LS4yOSwzLjI1LDMuMjUsMCwwLDEsLjM2LDBBMjMuOTQsMjMuOTQsMCwwLDEsMTIuNTQsMWMyLjE0LDAsNC41OSwwLDQuOTQsMCwxLDAsMi4yNy4xMSwzLjM4LjIxYTE2LjI3LDE2LjI3LDAsMCwxLDEuNzQuMjRsLjA2LDB2MGMuMDguODcuMDUsMi45LDAsMy43MywwLC41LjA4LDIuMjcuMDgsMy44MUExNSwxNSwwLDAsMSwyMi43LDExYS41Ni41NiwwLDAsMSwwLC4xMmMtLjE0LDAtLjQ0LjE0LS42OS4xNWExMC43OCwxMC43OCwwLDAsMS0xLjA5LDBjLTEuMDUtLjA2LTIuMTgtLjE1LTIuNzEtLjEyYS44OC44OCwwLDAsMC0uNi4yMmMtLjI0LjI4LS40OS45NS0uOTMsMS42N0E1LjA2LDUuMDYsMCwwLDEsMTYsMTRhMi4yNywyLjI3LDAsMCwxLTEuNjQuNzNjLS4wOC0uNTYsMC0yLjEsMC0yLjc2YTEuMzQsMS4zNCwwLDAsMC0uMDctLjQyLjM1LjM1LDAsMCwwLS4yNC0uMTkuMjkuMjksMCwwLDAtLjM1LjI1czAsMy40My4wNiwzLjUzYS40Mi40MiwwLDAsMCwuMzIuMjUsMi4yNSwyLjI1LDAsMCwwLDEuMDUsMCwzLDMsMCwwLDAsMS40NC0uODEsNi43OSw2Ljc5LDAsMCwwLC44Mi0xYy4zOC0uNTkuNjEtMS4xNC44Mi0xLjQ0aC4wNWMuNSwwLDEuNi4xMiwyLjYuMjFhMTEuNTQsMTEuNTQsMCwwLDAsMS42NywwLDEuNjcsMS42NywwLDAsMCwxLS4zNSwzLjI5LDMuMjksMCwwLDAsLjM5LTEuNTZDMjQsOC43MywyMy44NCw1Ljk0LDIzLjg1LDUuMjhaIiBzdHlsZT0iZmlsbDogIzMzOTdGQSIvPiYjeGE7ICA8L2c+PC9nPjwvc3ZnPg==;" parent="AAQ9BwyIkS6VjVYWZHyZ-1" vertex="1"><mxGeometry x="640" y="456.86" width="36" height="36.29" as="geometry"/></mxCell></root></mxGraphModel></diagram></mxfile>